<?xml version="1.0" standalone="no"?>
<!DOCTYPE svg PUBLIC "-//W3C//DTD SVG 20010904//EN"
 "http://www.w3.org/TR/2001/REC-SVG-20010904/DTD/svg10.dtd">
<svg version="1.0" xmlns="http://www.w3.org/2000/svg"
 width="690.000000pt" height="626.000000pt" viewBox="0 0 690.000000 626.000000"
 preserveAspectRatio="xMidYMid meet">

<g transform="translate(0.000000,626.000000) scale(0.100000,-0.100000)"
fill="#000000" stroke="none">
<path d="M4240 6050 c-1044 -31 -979 -25 -1068 -97 -50 -40 -29 -43 -211 22
l-103 37 -1097 -31 c-924 -26 -1103 -33 -1143 -46 -64 -22 -131 -84 -165 -153
l-28 -57 0 -1145 c0 -630 3 -1157 7 -1171 19 -77 88 -160 156 -188 l32 -13
-40 -20 c-49 -25 -106 -87 -134 -147 l-21 -46 0 -1160 0 -1160 23 -47 c13 -26
45 -67 72 -91 44 -40 78 -54 428 -180 209 -76 394 -142 413 -147 22 -6 401 0
1123 20 1204 34 1148 29 1229 100 l44 39 94 -33 c52 -18 108 -39 124 -46 38
-17 63 -16 1245 15 525 13 979 29 1009 34 94 18 189 97 217 181 4 14 10 32 13
40 3 8 7 523 8 1144 4 1244 6 1187 -58 1274 -17 24 -53 56 -80 71 l-49 28 50
34 c62 42 103 98 124 168 14 49 16 174 16 1167 0 1066 -1 1115 -19 1173 -23
76 -58 123 -115 156 -23 14 -217 88 -429 165 l-387 140 -167 -1 c-93 -1 -593
-14 -1113 -29z m1230 -14 c0 -2 -7 -7 -16 -10 -8 -3 -12 -2 -9 4 6 10 25 14
25 6z m-1950 -40 c0 -2 -7 -7 -16 -10 -8 -3 -12 -2 -9 4 6 10 25 14 25 6z
m149 -12 c2 -2 -17 -4 -42 -4 -26 0 -47 4 -47 9 0 8 79 3 89 -5z m1881 6 c0
-5 -4 -10 -10 -10 -5 0 -10 5 -10 10 0 6 5 10 10 10 6 0 10 -4 10 -10z m50 0
c0 -5 -4 -10 -10 -10 -5 0 -10 5 -10 10 0 6 5 10 10 10 6 0 10 -4 10 -10z
m-2190 -18 c7 -10 73 -32 93 -32 9 0 17 -4 17 -10 0 -5 14 -10 32 -10 17 0 28
-3 25 -7 -9 -8 59 -33 91 -33 12 0 22 -4 22 -10 0 -5 11 -10 25 -10 14 0 25
-4 25 -10 0 -5 14 -10 31 -10 17 0 28 -4 24 -10 -4 -6 7 -10 24 -10 17 0 31
-4 31 -10 0 -5 9 -10 20 -10 11 0 20 -4 20 -10 0 -5 14 -10 30 -10 17 0 30 -4
30 -10 0 -5 7 -10 15 -10 8 0 15 -4 15 -10 0 -5 -9 -10 -21 -10 -11 0 -17 -4
-14 -10 3 -5 1 -10 -5 -10 -15 0 -92 -79 -109 -113 -17 -32 -27 -34 -36 -7 -9
28 -100 120 -119 120 -9 0 -16 5 -16 10 0 6 -13 10 -30 10 -16 0 -30 5 -30 10
0 6 -11 10 -25 10 -14 0 -25 5 -25 10 0 6 -13 10 -30 10 -16 0 -30 5 -30 10 0
6 -11 10 -25 10 -14 0 -25 5 -25 10 0 6 -11 10 -25 10 -14 0 -25 5 -25 10 0 6
-13 10 -29 10 -17 0 -33 5 -36 10 -3 6 -17 10 -31 10 -13 0 -24 5 -24 10 0 6
-8 10 -17 10 -22 0 -83 22 -83 30 0 17 39 50 59 50 11 0 21 4 21 9 0 18 147
20 160 3z m2275 -22 c3 -5 2 -10 -4 -10 -5 0 -13 5 -16 10 -3 6 -2 10 4 10 5
0 13 -4 16 -10z m-1920 -63 c19 -4 19 -5 -1 -6 -12 0 -28 7 -35 17 -12 15 -12
16 1 6 8 -7 24 -14 35 -17z m2068 6 c-7 -2 -19 -2 -25 0 -7 3 -2 5 12 5 14 0
19 -2 13 -5z m-655 -60 c-10 -2 -28 -2 -40 0 -13 2 -5 4 17 4 22 1 32 -1 23
-4z m686 -1 c3 -5 -1 -9 -9 -9 -8 0 -12 4 -9 9 3 4 7 8 9 8 2 0 6 -4 9 -8z
m-1869 -22 c3 -5 1 -10 -4 -10 -6 0 -11 5 -11 10 0 6 2 10 4 10 3 0 8 -4 11
-10z m2309 -39 c55 -32 86 -63 120 -120 l21 -36 0 -1170 c0 -1310 7 -1189 -72
-1276 -70 -78 -118 -87 -488 -94 -165 -3 -448 -10 -630 -15 -950 -25 -1194
-30 -1240 -24 -54 7 -94 29 -138 78 -60 65 -57 -6 -57 1264 0 1155 0 1166 20
1208 25 50 97 120 145 140 19 8 76 16 127 18 108 5 431 14 1263 36 231 6 436
12 455 14 19 1 122 3 229 4 l194 2 51 -29z m-2738 -55 c21 3 25 2 14 -5 -8 -5
-18 -7 -22 -5 -4 3 -8 -2 -8 -10 0 -9 9 -16 20 -16 11 0 20 5 20 10 0 13 37
13 45 -1 8 -12 56 -33 68 -30 5 1 6 -3 2 -9 -3 -5 -1 -10 5 -10 7 0 9 -7 6
-16 -3 -8 -2 -12 4 -9 6 4 18 -2 28 -11 16 -17 16 -18 0 -11 -10 3 -18 2 -18
-3 0 -6 6 -10 14 -10 7 0 19 -7 26 -15 10 -12 10 -15 0 -15 -9 0 -8 -6 4 -19
12 -13 14 -21 6 -26 -8 -5 -8 -10 0 -20 7 -9 10 -343 10 -1096 0 -1020 -1
-1085 -18 -1098 -12 -10 -13 -12 -2 -9 12 4 15 -2 15 -26 -1 -42 -11 -56 -41
-56 -13 0 -24 -4 -24 -10 0 -5 11 -10 25 -10 25 0 25 0 9 -26 -9 -14 -22 -23
-29 -20 -21 8 -35 -15 -24 -37 8 -14 8 -18 0 -13 -6 4 -14 0 -17 -8 -3 -9 -15
-16 -26 -16 -12 0 -16 -4 -12 -11 4 -7 1 -10 -7 -7 -8 3 -23 -2 -34 -11 -18
-15 -19 -15 -6 2 7 9 12 17 10 18 -44 8 -48 8 -43 -6 5 -11 2 -13 -10 -9 -9 3
-16 2 -16 -2 0 -10 -189 -9 -198 0 -3 3 -12 6 -21 6 -13 0 -13 -2 -2 -9 8 -6
-13 -9 -58 -10 -55 -1 -70 2 -65 12 5 8 2 7 -10 -2 -13 -11 -20 -11 -28 -3 -7
7 -17 12 -23 12 -5 0 -3 -5 5 -10 10 -7 -9 -10 -64 -9 -69 1 -76 3 -56 14 15
8 19 15 11 19 -6 4 -11 2 -11 -3 0 -6 -8 -11 -17 -11 -16 0 -16 2 -3 11 12 8
12 10 1 7 -8 -2 -16 -15 -18 -28 -4 -29 -13 -40 -13 -17 0 14 -11 17 -58 17
-31 0 -72 4 -90 9 -18 6 -30 7 -28 3 5 -8 -291 -5 -312 3 -8 3 -10 0 -6 -7 5
-8 2 -9 -9 -5 -10 3 -17 2 -17 -3 0 -6 62 -9 158 -7 86 2 202 0 257 -3 l100
-6 -87 -2 c-48 -1 -90 -6 -93 -12 -4 -6 -42 -7 -98 -4 -51 3 -128 6 -172 5
-319 -3 -450 0 -458 12 -7 9 -10 9 -14 0 -3 -9 -29 -13 -79 -13 -43 0 -74 -4
-74 -10 0 -5 -23 -10 -51 -10 -47 0 -50 1 -45 23 3 12 3 16 0 10 -7 -15 -34
-17 -34 -3 0 6 -18 10 -40 10 -22 0 -40 -4 -40 -10 0 -5 14 -10 30 -10 17 0
30 -4 30 -10 0 -6 -50 -10 -130 -10 -80 0 -130 4 -130 10 0 6 -9 10 -20 10
-11 0 -20 -4 -20 -10 0 -5 -7 -10 -15 -10 -8 0 -15 5 -15 10 0 15 -50 12 -51
-2 0 -9 -2 -9 -6 1 -5 11 -7 11 -14 0 -7 -11 -11 -10 -22 5 -9 12 -19 16 -27
11 -9 -5 -11 -4 -6 3 4 7 1 12 -6 12 -7 0 -22 12 -32 27 -11 14 -14 23 -8 19
16 -9 16 19 0 43 -11 18 -13 18 -25 3 -12 -15 -12 -15 -6 2 4 13 3 17 -4 13
-7 -5 -9 0 -6 13 3 11 0 26 -6 33 -6 8 -8 24 -5 38 10 46 14 136 5 109 -5 -14
-9 421 -10 1015 -1 820 2 1044 12 1054 9 11 9 12 0 7 -9 -5 -12 4 -11 29 1 27
4 32 10 21 5 -9 6 -21 3 -26 -9 -15 2 -12 19 6 20 20 20 34 1 34 -21 0 -19 16
3 24 9 3 22 8 28 11 6 3 14 -4 17 -17 4 -12 9 -19 12 -16 13 13 -16 50 -36 45
-10 -3 -17 -1 -13 4 3 5 0 9 -7 9 -7 0 0 14 16 30 16 17 39 30 53 30 24 0 59
26 49 37 -4 3 4 14 16 23 20 16 48 18 228 19 216 0 408 9 423 19 5 3 6 -1 1
-8 -6 -10 -4 -11 11 -5 30 13 544 19 544 6 0 -6 9 -11 20 -11 11 0 20 5 20 10
0 6 53 10 140 10 87 0 140 -4 140 -10 0 -5 9 -10 20 -10 11 0 20 5 20 10 0 6
18 10 40 10 22 0 40 5 40 10 0 6 9 10 20 10 11 0 20 -4 20 -10 0 -5 23 -10 50
-10 28 0 50 5 50 10 0 6 43 10 110 10 67 0 110 -4 110 -10 0 -5 9 -10 20 -10
11 0 20 5 20 10 0 6 10 10 23 10 13 0 28 5 34 11 8 8 15 6 25 -10 15 -24 33
-27 41 -7 4 10 1 13 -7 10 -8 -3 -17 -1 -21 5 -4 7 0 8 11 4 13 -5 15 -3 9 8
-7 11 -6 12 6 2 8 -7 28 -10 45 -7z m-2866 -2546 c0 -5 11 -10 25 -10 14 0 25
-4 25 -10 0 -5 11 -10 25 -10 14 0 25 -4 25 -10 0 -5 14 -10 30 -10 17 0 30
-4 30 -10 0 -5 11 -10 25 -10 14 0 25 -4 25 -10 0 -5 14 -10 31 -10 17 0 28
-4 24 -10 -4 -6 7 -10 24 -10 17 0 31 -4 31 -10 0 -5 7 -10 15 -10 8 0 15 -4
15 -10 0 -5 20 -10 45 -10 25 0 45 -4 45 -10 0 -5 11 -10 24 -10 14 0 28 -4
31 -10 3 -5 17 -10 31 -10 13 0 24 -4 24 -10 0 -5 11 -10 25 -10 14 0 25 -2
25 -4 0 -2 3 -11 6 -20 3 -9 1 -16 -5 -16 -37 0 -141 -146 -141 -197 0 -13 -6
-23 -12 -24 -29 -3 -63 4 -66 12 -2 5 -17 9 -32 9 -16 0 -32 5 -35 10 -3 6
-17 10 -31 10 -13 0 -24 5 -24 10 0 6 -11 10 -25 10 -14 0 -25 5 -25 10 0 6
-13 10 -30 10 -16 0 -30 5 -30 10 0 6 -11 10 -24 10 -14 0 -28 5 -31 10 -3 6
-17 10 -31 10 -13 0 -24 5 -24 10 0 6 -11 10 -24 10 -14 0 -28 5 -31 10 -3 6
-17 10 -31 10 -13 0 -24 5 -24 10 0 6 -11 10 -25 10 -14 0 -25 5 -25 10 0 6
-13 10 -30 10 -16 0 -30 5 -30 10 0 6 -12 10 -26 10 -14 0 -23 4 -19 10 3 6
-1 10 -9 10 -19 0 -20 10 -2 77 13 49 70 123 96 123 5 0 10 5 10 10 0 6 9 10
20 10 11 0 20 5 20 10 0 6 20 10 45 10 25 0 45 -4 45 -10z m3140 -40 c0 -13
-11 -13 -30 0 -12 8 -11 10 8 10 12 0 22 -4 22 -10z m-120 -20 c0 -5 -2 -10
-4 -10 -3 0 -8 5 -11 10 -3 6 -1 10 4 10 6 0 11 -4 11 -10z m-2480 -21 c0 -5
-4 -9 -10 -9 -5 0 -10 7 -10 16 0 8 5 12 10 9 6 -3 10 -10 10 -16z m2570 -24
c-7 -9 -9 -19 -5 -23 4 -4 10 -1 12 6 5 14 43 16 43 2 0 -5 16 -10 35 -10 19
0 35 -4 35 -10 0 -5 9 -10 20 -10 11 0 20 -4 20 -10 0 -5 -7 -10 -15 -10 -8 0
-15 -4 -15 -10 0 -5 -7 -10 -15 -10 -8 0 -15 -4 -15 -10 0 -5 -5 -10 -11 -10
-15 0 -39 -26 -39 -42 0 -8 -9 -20 -20 -28 -11 -8 -20 -22 -20 -32 0 -10 -4
-18 -10 -18 -5 0 -10 7 -10 15 0 9 -6 23 -12 31 -41 48 -87 91 -110 103 -33
17 -36 31 -8 31 11 0 20 5 20 10 0 6 6 10 13 10 7 0 19 9 27 20 10 14 26 20
53 20 34 0 38 -2 27 -15z m2449 -32 c-8 -23 -8 -26 2 -15 17 16 22 15 49 -8
12 -11 27 -17 33 -13 6 3 7 1 3 -5 -4 -7 -1 -12 7 -12 8 0 20 -6 26 -14 10
-11 8 -16 -6 -24 -10 -6 -14 -14 -10 -18 5 -5 13 -2 18 6 8 12 12 12 16 2 2
-7 10 -18 16 -25 16 -16 18 -59 3 -54 -7 3 -13 -5 -14 -16 -1 -17 1 -18 8 -7
5 8 12 12 15 9 3 -4 7 -499 8 -1101 2 -927 0 -1095 -12 -1094 -7 1 -15 -7 -16
-16 -2 -10 1 -18 7 -18 6 0 7 8 4 17 -6 16 -5 16 8 0 8 -10 13 -24 12 -30 -9
-42 -19 -66 -27 -62 -4 3 -6 -4 -4 -15 2 -13 -7 -33 -25 -53 -23 -26 -31 -30
-41 -19 -16 15 -29 16 -29 2 0 -5 7 -10 15 -10 21 0 19 -17 -5 -30 -14 -7 -20
-7 -20 0 0 5 -4 10 -9 10 -5 0 -7 -8 -5 -17 4 -15 -3 -18 -38 -20 -34 -1 -39
1 -23 8 18 8 17 9 -5 5 -14 -3 -42 0 -63 6 -27 8 -41 8 -49 0 -8 -8 -2 -14 22
-24 29 -12 0 -14 -245 -16 -215 -2 -281 1 -287 10 -6 10 -10 10 -16 1 -10 -16
-117 -23 -450 -29 -199 -3 -290 -8 -286 -16 4 -6 -1 -6 -15 1 -16 9 -21 9 -22
-1 0 -10 -2 -10 -6 0 -6 14 -79 16 -88 2 -3 -5 -12 -10 -18 -10 -7 0 -6 4 3
10 21 13 3 12 -22 -1 -24 -13 -186 -13 -203 0 -5 5 -19 5 -30 0 -29 -11 -37
-11 -29 4 6 9 4 9 -7 0 -14 -14 -103 -18 -95 -5 2 4 -4 8 -14 8 -12 0 -16 -4
-10 -11 11 -13 -127 -7 -154 7 -11 6 -16 6 -13 0 4 -5 -5 -14 -19 -21 -33 -15
-39 -14 -24 4 7 8 17 12 23 8 6 -3 7 -1 3 6 -6 9 -11 9 -21 1 -8 -6 -16 -7
-19 -2 -5 9 -26 8 -76 -4 -18 -4 -32 1 -50 18 -13 13 -29 22 -35 20 -5 -2 -7
0 -2 4 4 4 -10 26 -30 47 -21 22 -32 37 -25 33 6 -4 12 -2 12 3 0 6 -6 11 -12
12 -7 0 -2 5 11 10 27 11 43 3 21 -11 -8 -6 -10 -10 -5 -10 6 0 16 4 24 9 12
8 12 11 0 24 -10 11 -18 12 -31 4 -9 -6 -20 -9 -23 -6 -3 3 -5 511 -5 1129 0
888 -2 1126 -12 1138 -7 9 -8 13 -2 9 7 -4 11 5 12 24 0 17 6 37 13 45 6 8 8
14 3 14 -5 0 -1 7 10 15 11 8 16 21 13 30 -4 8 -2 15 4 15 6 0 17 7 25 15 9 8
12 15 7 15 -26 0 38 27 66 28 19 0 37 5 40 10 14 22 52 30 141 30 103 0 97 -3
-22 -13 -87 -7 -106 -25 -28 -25 28 0 50 4 50 9 0 5 21 11 48 14 26 3 59 8 74
12 41 11 118 -3 118 -21 0 -8 -7 -14 -15 -14 -8 0 -15 -4 -15 -10 0 -5 12 -10
26 -10 23 0 26 3 22 25 -3 14 -1 28 3 31 5 3 9 -1 9 -8 0 -8 3 -9 8 -2 4 5 37
10 74 10 36 -1 61 -4 55 -8 -8 -5 -6 -8 6 -8 9 0 17 6 17 13 0 9 3 8 9 -2 6
-9 11 -10 15 -2 10 16 178 15 196 -1 12 -11 12 -10 1 5 -7 9 -10 17 -5 18 90
6 354 5 354 -2 0 -6 8 -5 19 1 25 13 137 13 161 0 15 -8 18 -7 15 7 -3 16 5
18 75 15 47 -2 87 1 100 8 13 7 20 8 17 3 -9 -15 696 -3 711 11 11 12 11 5 1
-21z m-2214 -33 c-3 -5 -11 -10 -16 -10 -6 0 -7 5 -4 10 3 6 11 10 16 10 6 0
7 -4 4 -10z m-408 -22 c64 -30 135 -103 151 -156 10 -33 12 -292 12 -1189 l0
-1146 -28 -56 c-33 -65 -99 -120 -164 -138 -24 -7 -153 -15 -288 -18 -589 -15
-943 -24 -1340 -36 -489 -15 -593 -15 -635 -4 -49 13 -113 63 -139 108 -47 81
-48 110 -44 1282 3 1099 3 1100 24 1145 25 51 87 120 124 137 63 28 104 32
400 38 173 3 461 10 640 15 179 5 516 13 749 19 233 6 426 13 429 16 12 12 65
4 109 -17z m-3132 -88 c3 -5 17 -10 30 -10 13 0 27 -4 30 -10 3 -5 15 -10 26
-10 10 0 19 -4 19 -10 0 -5 14 -10 30 -10 17 0 30 -4 30 -10 0 -5 11 -10 24
-10 14 0 28 -4 31 -10 3 -5 17 -10 31 -10 13 0 24 -4 24 -10 0 -5 11 -10 24
-10 14 0 28 -4 31 -10 3 -5 17 -10 30 -10 13 0 26 -4 29 -8 3 -4 28 -14 55
-22 28 -7 51 -17 51 -22 0 -4 11 -8 24 -8 14 0 28 -4 31 -10 3 -5 14 -10 24
-10 9 0 28 -5 42 -12 l24 -11 -3 -1075 c-1 -592 -5 -1078 -9 -1081 -3 -3 -8 0
-10 7 -3 6 -16 12 -29 12 -13 0 -33 4 -44 10 -11 5 -29 15 -40 20 -11 6 -27
10 -35 10 -8 0 -25 5 -38 12 -48 24 -57 28 -76 28 -11 0 -23 4 -26 10 -3 5
-17 10 -31 10 -13 0 -24 5 -24 10 0 6 -11 10 -25 10 -14 0 -25 5 -25 10 0 6
-11 10 -24 10 -14 0 -28 4 -31 10 -3 5 -17 10 -31 10 -13 0 -24 5 -24 10 0 6
-11 10 -25 10 -14 0 -25 5 -25 10 0 6 -13 10 -30 10 -16 0 -30 5 -30 10 0 6
-11 10 -24 10 -13 0 -28 8 -32 18 -5 9 -10 495 -12 1080 l-3 1062 30 0 c16 0
33 -4 36 -10z m-15 -2180 c0 -5 11 -10 25 -10 14 0 25 -4 25 -10 0 -5 14 -10
30 -10 17 0 30 -4 30 -10 0 -5 11 -10 25 -10 14 0 25 -4 25 -10 0 -5 13 -10
29 -10 17 0 33 -4 36 -10 3 -5 15 -10 26 -10 10 0 19 -4 19 -10 0 -5 14 -10
30 -10 17 0 30 -4 30 -10 0 -5 11 -10 25 -10 14 0 25 -4 25 -10 0 -5 14 -10
30 -10 17 0 30 -4 30 -10 0 -5 14 -10 30 -10 17 0 30 -4 30 -10 0 -5 11 -10
25 -10 14 0 25 -4 25 -10 0 -5 11 -10 25 -10 14 0 25 -4 25 -10 0 -5 9 -10 20
-10 11 0 20 -4 20 -10 0 -5 7 -10 16 -10 14 0 16 -7 11 -40 -3 -25 -1 -45 7
-53 7 -6 15 -21 18 -33 4 -17 1 -20 -23 -16 -16 2 -29 8 -29 13 0 5 -11 9 -24
9 -26 0 -79 24 -71 32 3 2 -1 5 -8 5 -52 3 -77 9 -81 20 -3 7 -12 10 -21 7 -8
-3 -15 -1 -15 5 0 6 -6 8 -14 5 -7 -3 -20 2 -29 10 -9 9 -25 16 -36 16 -12 0
-29 4 -39 9 -14 8 -37 18 -62 26 -3 1 -18 7 -33 13 -16 7 -33 10 -38 6 -5 -3
-12 2 -15 11 -4 10 -14 14 -28 10 -11 -2 -15 -2 -8 1 19 9 4 24 -25 24 -16 0
-37 12 -55 30 -15 17 -32 30 -36 30 -7 0 -27 51 -39 98 -4 17 -1 22 16 22 11
0 21 -4 21 -10z m3347 -309 c-1 -11 -8 -19 -18 -18 -10 1 -14 7 -11 19 6 24
31 23 29 -1z m2338 -16 c39 -17 11 -18 -35 0 -23 9 -28 14 -15 14 11 0 34 -6
50 -14z"/>
<path d="M3820 5770 c0 -5 5 -10 10 -10 6 0 10 5 10 10 0 6 -4 10 -10 10 -5 0
-10 -4 -10 -10z"/>
<path d="M5788 5535 c-3 -3 -192 -10 -419 -16 -228 -5 -580 -13 -784 -18 -203
-5 -383 -12 -400 -16 -47 -12 -81 -41 -99 -85 -14 -36 -16 -142 -16 -1020 0
-896 1 -983 17 -1019 29 -67 25 -66 353 -63 162 2 338 5 390 8 52 2 271 9 485
14 745 19 775 21 811 42 68 40 65 -21 64 1084 0 1103 4 1026 -66 1072 -31 20
-45 22 -182 22 -82 0 -151 -2 -154 -5z m303 -36 c10 -11 21 -44 24 -72 3 -29
5 -479 3 -1002 -2 -746 -6 -955 -16 -972 -11 -19 -10 -22 3 -17 8 4 15 15 15
25 0 14 7 19 30 19 33 0 38 -16 18 -53 -17 -33 -34 -47 -57 -47 -12 0 -21 -4
-21 -10 0 -5 -9 -10 -20 -10 -11 0 -20 5 -20 10 0 6 6 10 13 10 7 0 18 9 25
20 7 12 8 20 2 20 -5 0 -10 -3 -10 -7 0 -17 -58 -34 -125 -39 -38 -2 -419 -13
-845 -24 -426 -11 -821 -22 -877 -25 l-103 -5 -25 40 -25 40 0 979 c0 653 3
989 10 1007 12 31 44 62 78 75 23 9 271 18 1112 39 234 6 445 12 470 14 25 1
107 3 184 4 129 2 140 1 157 -19z m55 -33 c15 -16 19 -46 6 -46 -8 0 -32 43
-32 55 0 9 12 5 26 -9z m20 -80 c17 -18 18 -62 2 -70 -10 -5 -10 -7 0 -12 9
-4 12 -195 12 -905 0 -494 -3 -899 -6 -899 -3 0 -12 7 -21 16 -14 14 -16 110
-14 917 1 496 1 917 1 935 0 36 5 39 26 18z"/>
<path d="M4990 5264 c-151 -14 -318 -60 -372 -101 -69 -53 -59 -124 27 -191
66 -52 81 -78 96 -168 12 -74 16 -517 6 -744 -6 -128 -6 -133 8 -90 9 25 12
46 8 47 -5 2 -5 92 0 200 10 260 10 261 2 453 -5 104 -12 168 -19 173 -8 5 -7
10 4 17 13 8 12 11 -5 24 -12 10 -15 15 -7 16 21 0 42 -26 44 -54 1 -14 5 -26
9 -26 8 0 21 -214 23 -375 2 -166 -16 -545 -25 -545 -5 0 -9 -9 -9 -20 0 -11
-4 -20 -10 -20 -5 0 -10 -6 -10 -12 0 -7 -23 -35 -50 -62 -28 -27 -50 -52 -50
-57 0 -14 -38 -11 -43 4 -2 6 2 19 9 27 8 8 26 30 40 48 14 17 31 32 37 32 14
0 37 46 36 69 0 9 -7 2 -14 -15 -8 -17 -33 -48 -57 -69 -24 -21 -48 -48 -55
-59 -26 -44 -10 -112 30 -132 12 -6 37 -19 55 -29 106 -55 460 -63 655 -15
139 34 177 57 195 119 18 59 -2 100 -71 146 -31 20 -60 49 -66 63 -20 51 -31
236 -31 526 1 433 10 481 107 546 47 32 88 90 62 90 -5 0 -9 -8 -9 -17 0 -10
-19 -30 -43 -45 -58 -37 -91 -76 -105 -123 -24 -83 -34 -375 -23 -664 10 -246
14 -281 33 -323 12 -27 25 -48 30 -48 5 0 28 -15 51 -32 23 -18 43 -33 45 -34
1 -1 6 -14 11 -31 15 -50 -11 -94 -70 -120 -28 -13 -58 -23 -67 -23 -8 0 -29
-4 -46 -9 -87 -26 -148 -32 -327 -31 -201 0 -256 8 -317 45 -64 39 -55 95 27
174 42 41 60 66 65 92 22 122 27 768 6 903 -15 95 -21 105 -113 184 -67 57
-69 108 -5 154 46 35 80 46 238 77 177 36 426 30 517 -11 46 -22 93 -64 93
-84 0 -7 5 -16 10 -19 19 -11 -1 48 -24 73 -67 75 -305 117 -536 96z m-165
-54 c3 -5 2 -10 -4 -10 -5 0 -13 5 -16 10 -3 6 -2 10 4 10 5 0 13 -4 16 -10z
m-65 -20 c0 -5 -7 -10 -16 -10 -8 0 -12 5 -9 10 3 6 10 10 16 10 5 0 9 -4 9
-10z m-40 -20 c0 -5 -11 -10 -25 -10 -14 0 -25 -4 -25 -10 0 -5 -7 -10 -15
-10 -8 0 -15 -4 -15 -10 0 -15 -17 -12 -23 4 -4 9 -1 13 6 10 7 -2 19 5 27 16
15 21 70 29 70 10z m-80 -80 c0 -5 -11 -10 -24 -10 -14 0 -28 5 -31 10 -4 6 7
10 24 10 17 0 31 -4 31 -10z m-10 -34 c0 -2 3 -11 6 -20 3 -9 1 -16 -6 -16 -6
0 -8 5 -5 10 3 6 -1 10 -9 10 -9 0 -16 5 -16 10 0 6 7 10 15 10 8 0 15 -2 15
-4z m17 -1371 c8 -9 13 -19 10 -22 -6 -5 -37 21 -37 31 0 10 11 6 27 -9z"/>
<path d="M3200 5670 c0 -5 -16 -10 -35 -10 -19 0 -35 -4 -35 -10 0 -5 16 -10
35 -10 19 0 35 5 35 10 0 6 18 10 40 10 22 0 40 5 40 10 0 6 -18 10 -40 10
-22 0 -40 -4 -40 -10z"/>
<path d="M1864 5650 c-6 -6 -74 -10 -157 -11 -81 0 -147 -4 -147 -8 0 -9 341
-8 356 1 15 10 118 13 132 4 7 -4 12 -3 12 2 0 6 9 8 20 5 11 -3 20 -1 20 3 0
5 -41 10 -90 11 -65 2 -90 -1 -90 -10 0 -8 -3 -8 -9 2 -6 10 -10 10 -16 1 -5
-9 -9 -9 -14 -1 -5 7 -10 8 -17 1z"/>
<path d="M2150 5648 c0 -12 38 -10 45 2 4 6 -5 9 -19 8 -15 -1 -26 -6 -26 -10z"/>
<path d="M2218 5653 c7 -3 16 -2 19 1 4 3 -2 6 -13 5 -11 0 -14 -3 -6 -6z"/>
<path d="M3080 5650 c0 -5 5 -10 10 -10 6 0 10 5 10 10 0 6 -4 10 -10 10 -5 0
-10 -4 -10 -10z"/>
<path d="M3300 5650 c0 -5 13 -10 29 -10 16 0 31 -6 34 -12 2 -7 8 -10 12 -6
4 4 0 14 -8 23 -17 17 -67 21 -67 5z"/>
<path d="M3672 5650 c10 -6 14 -18 11 -32 -4 -21 -3 -21 7 -5 13 20 -2 47 -24
47 -6 0 -4 -5 6 -10z"/>
<path d="M1360 5635 c-11 -13 -10 -14 4 -9 9 3 16 10 16 15 0 13 -6 11 -20 -6z"/>
<path d="M1393 5636 c0 -8 17 -13 46 -13 34 -1 41 1 27 9 -10 5 -20 7 -23 5
-3 -3 -15 -2 -27 3 -16 6 -23 5 -23 -4z"/>
<path d="M3629 5642 c9 -7 10 -11 2 -15 -7 -4 -8 -5 -1 -4 16 3 14 21 -2 25
-10 3 -10 2 1 -6z"/>
<path d="M1490 5636 c0 -2 7 -7 16 -10 8 -3 12 -2 9 4 -6 10 -25 14 -25 6z"/>
<path d="M2880 5630 c0 -5 5 -10 10 -10 6 0 10 5 10 10 0 6 -4 10 -10 10 -5 0
-10 -4 -10 -10z"/>
<path d="M3540 5630 c0 -5 5 -10 10 -10 6 0 10 5 10 10 0 6 -4 10 -10 10 -5 0
-10 -4 -10 -10z"/>
<path d="M3240 5610 c0 -5 14 -10 30 -10 17 0 30 5 30 10 0 6 -13 10 -30 10
-16 0 -30 -4 -30 -10z"/>
<path d="M3480 5570 c0 -5 9 -10 20 -10 11 0 20 5 20 10 0 6 -9 10 -20 10 -11
0 -20 -4 -20 -10z"/>
<path d="M3685 5570 c-3 -5 -3 -14 0 -20 9 -14 55 -8 55 7 0 15 -16 17 -25 3
-3 -5 -11 -10 -17 -10 -7 0 -6 6 2 15 8 9 9 15 2 15 -6 0 -14 -4 -17 -10z"/>
<path d="M1253 5539 c-2 -19 11 -26 21 -10 3 5 0 14 -7 19 -10 8 -13 6 -14 -9z"/>
<path d="M3200 5550 c0 -6 -33 -10 -80 -10 -44 0 -80 -4 -80 -9 0 -11 167 -19
182 -10 6 4 6 9 2 11 -5 3 -3 3 4 2 6 -2 12 3 12 11 0 8 -9 15 -20 15 -11 0
-20 -4 -20 -10z"/>
<path d="M3237 5520 c-16 -20 -16 -20 33 -20 28 0 50 5 50 10 0 6 -9 10 -19
10 -11 0 -23 5 -26 10 -9 15 -19 12 -38 -10z m38 0 c3 -5 2 -10 -4 -10 -5 0
-13 5 -16 10 -3 6 -2 10 4 10 5 0 13 -4 16 -10z"/>
<path d="M3360 5530 c0 -5 9 -10 20 -10 11 0 20 5 20 10 0 6 -9 10 -20 10 -11
0 -20 -4 -20 -10z"/>
<path d="M3444 5529 c-3 -6 -1 -15 6 -19 24 -15 -24 -20 -216 -26 -139 -4
-194 -3 -194 5 0 7 -28 11 -80 11 -73 0 -80 -2 -80 -20 0 -20 -7 -20 -302 -22
-167 -1 -326 -1 -354 1 -29 1 -55 -2 -58 -8 -4 -5 -14 -7 -23 -4 -12 5 -14 3
-8 -6 5 -10 2 -11 -13 -7 -11 4 -85 8 -165 9 -80 1 -140 5 -134 10 7 4 -1 4
-18 1 -16 -4 -71 -8 -122 -10 -51 -2 -101 -8 -112 -13 -27 -15 -84 -14 -75 0
4 7 -1 7 -16 -1 -19 -10 -22 -10 -18 2 5 11 -1 13 -22 10 -21 -3 -32 -14 -45
-43 -10 -21 -21 -37 -25 -34 -8 5 -7 -61 1 -69 3 -3 6 9 7 27 3 32 19 50 37
40 5 -4 7 -3 3 2 -12 13 22 69 34 57 6 -6 18 -8 27 -5 13 3 12 2 -2 -7 -9 -6
-15 -16 -11 -21 3 -5 0 -8 -8 -7 -7 2 -12 -3 -10 -9 1 -7 -3 -13 -8 -13 -16 0
-36 -60 -39 -120 -1 -13 -2 -13 -11 0 -7 11 -10 11 -10 2 0 -8 -5 -10 -12 -6
-8 4 -10 3 -5 -2 5 -5 14 -9 20 -9 9 0 13 -231 15 -935 2 -729 -1 -931 -10
-922 -7 7 -16 12 -21 12 -5 0 2 -9 17 -21 14 -11 24 -24 21 -29 -3 -5 -1 -12
5 -15 8 -5 7 -11 -1 -21 -7 -8 -7 -14 -1 -14 5 0 13 -11 16 -25 4 -14 10 -24
15 -21 4 3 17 -3 28 -14 19 -17 39 -19 237 -20 137 0 216 3 216 9 0 6 31 10
78 8 42 -1 184 -1 315 1 187 1 237 5 231 15 -6 10 -4 10 7 0 16 -16 73 -17
101 -2 15 8 19 8 14 0 -9 -13 -9 -13 33 -1 25 7 39 6 50 -3 8 -6 12 -7 8 -1
-9 15 433 16 452 1 12 -9 13 -9 7 1 -9 15 -1 15 27 0 21 -11 21 -10 7 7 -10
12 -10 16 -2 11 7 -4 20 -2 29 6 12 9 15 9 9 1 -4 -8 -2 -13 8 -13 8 0 17 6
19 13 4 10 6 10 6 0 1 -16 33 -17 47 -3 7 7 11 6 11 -4 0 -8 -5 -12 -11 -9 -6
3 -7 2 -3 -2 12 -14 57 -17 57 -4 0 6 -7 9 -15 5 -9 -3 -15 0 -15 10 0 8 5 12
10 9 6 -3 10 -1 10 5 0 6 5 8 13 3 6 -4 19 -6 29 -5 9 2 20 -2 24 -9 4 -8 3
-9 -4 -5 -7 4 -12 2 -12 -4 0 -7 -7 -10 -15 -6 -8 3 -15 1 -15 -4 0 -5 15 -8
34 -7 24 2 32 6 28 16 -3 9 -1 12 6 7 6 -3 14 -2 17 4 4 6 3 10 -2 9 -19 -3
-33 2 -33 12 0 5 5 7 10 4 6 -3 10 -1 10 5 0 6 3 9 8 7 8 -6 34 19 30 29 -4
10 42 12 48 2 3 -4 0 -8 -5 -8 -6 0 -11 -7 -11 -15 0 -8 6 -15 14 -15 21 0 16
37 -8 58 -14 13 -17 13 -11 2 4 -8 4 -12 0 -7 -12 10 -14 47 -3 47 5 0 6 5 3
10 -3 6 -2 10 4 10 6 0 8 7 5 15 -4 8 -1 22 6 30 11 13 10 14 -1 10 -12 -4
-14 135 -11 936 1 683 5 946 14 956 8 11 7 12 -6 7 -9 -3 -16 -2 -17 2 0 5 -2
20 -5 33 -3 19 -2 22 9 12 12 -9 14 -6 13 18 -1 16 -4 33 -8 37 -4 3 -5 -5 -3
-19 4 -20 1 -25 -12 -22 -10 1 -17 8 -15 15 1 6 -2 9 -7 5 -6 -3 -24 9 -41 26
-23 25 -27 35 -19 45 9 11 8 14 -5 14 -10 0 -14 5 -11 10 3 6 4 10 1 10 -3 0
-8 -5 -12 -11z m20 -55 c5 -14 4 -15 -9 -4 -17 14 -19 20 -6 20 5 0 12 -7 15
-16z m-13 -64 c19 -34 19 -73 17 -1027 -3 -990 -3 -992 -24 -1020 -48 -63 8
-59 -1007 -87 -555 -15 -937 -22 -951 -17 -52 20 -51 -1 -51 1062 l0 986 27
35 c15 19 39 40 55 46 27 11 1605 61 1822 58 l94 -1 18 -35z"/>
<path d="M2880 5210 c-81 -10 -132 -30 -162 -65 -54 -62 -37 -142 43 -199 75
-55 82 -71 87 -205 4 -125 -5 -184 -30 -189 -15 -3 -93 58 -188 144 -39 36
-63 57 -134 117 -27 23 -61 53 -76 67 -23 21 -89 79 -174 153 -12 10 -33 29
-48 43 -15 13 -30 24 -34 24 -3 0 -24 13 -47 28 -75 50 -109 57 -277 55 -211
-2 -320 -31 -365 -99 -40 -61 -16 -123 70 -184 97 -68 108 -104 125 -403 11
-202 -2 -571 -22 -628 -16 -44 -42 -76 -90 -113 -46 -34 -61 -80 -45 -133 6
-21 16 -43 22 -49 66 -68 272 -112 445 -94 164 17 245 59 269 141 11 35 10 45
-6 74 -10 18 -38 48 -62 67 -75 56 -86 89 -86 258 1 148 14 226 40 236 17 7
40 -8 109 -72 28 -27 85 -78 125 -114 41 -36 88 -78 104 -93 17 -15 57 -51 90
-80 33 -29 72 -63 87 -77 15 -14 58 -53 96 -87 66 -59 92 -81 179 -157 42 -36
140 -72 185 -67 44 5 79 33 99 80 31 73 41 241 41 698 0 324 3 438 14 496 18
91 26 106 81 140 62 40 76 59 82 119 5 50 3 58 -23 87 -18 20 -55 41 -99 58
-61 23 -88 26 -215 29 -80 1 -174 -1 -210 -6z m350 -64 c0 -7 3 -7 8 -1 4 6
13 11 21 13 24 5 101 -21 101 -35 0 -7 9 -17 20 -23 25 -13 26 -80 1 -79 -11
0 -12 2 -3 6 6 2 9 9 6 15 -4 6 -9 6 -14 -3 -5 -7 -2 -22 7 -36 15 -22 14 -23
-10 -23 -14 0 -29 -4 -32 -10 -4 -6 1 -7 12 -3 15 6 16 5 3 -9 -15 -15 -45
-13 -35 2 3 5 1 11 -5 15 -5 3 -10 -2 -10 -12 0 -15 -2 -16 -11 -3 -9 13 -10
13 -6 0 2 -8 10 -14 16 -13 6 2 11 0 11 -5 0 -10 -38 -42 -50 -42 -5 0 -7 -9
-5 -20 2 -11 0 -18 -4 -15 -5 3 -9 -5 -9 -18 -1 -24 -10 -92 -13 -92 -1 0 -3
-33 -5 -74 -2 -40 -9 -80 -16 -89 -10 -12 -10 -14 0 -8 9 6 12 -70 12 -366 0
-285 -3 -377 -12 -387 -11 -11 -10 -12 2 -6 13 8 13 7 1 -8 -11 -14 -11 -17 0
-17 11 0 11 -2 -1 -10 -12 -7 -12 -12 -2 -22 15 -15 16 -42 1 -32 -7 4 -7 -1
1 -16 8 -15 8 -20 1 -16 -7 5 -11 -7 -11 -37 0 -29 -6 -50 -20 -64 -10 -12
-22 -33 -26 -47 -4 -19 -10 -24 -18 -17 -7 6 -22 8 -33 5 -12 -3 -30 -1 -40 5
-17 10 -17 10 0 11 9 0 17 7 17 15 0 9 -8 14 -22 12 -15 -1 -22 3 -20 12 2 11
-3 10 -23 -3 -15 -10 -29 -15 -33 -12 -3 3 0 6 7 6 7 0 9 5 6 10 -4 6 -12 8
-18 4 -7 -3 -3 2 7 10 11 9 16 19 11 23 -4 5 -10 2 -12 -4 -3 -7 -11 -13 -19
-13 -9 0 -12 5 -9 10 3 6 -4 10 -17 10 -18 0 -20 2 -8 10 13 9 13 10 0 11 -8
1 -19 1 -23 0 -5 -1 -6 3 -2 9 3 5 -1 10 -9 10 -14 0 -20 12 -17 33 0 4 -5 7
-12 7 -8 0 -7 4 3 10 13 9 13 10 -1 10 -8 0 -21 -6 -28 -12 -10 -11 -12 -10
-9 2 2 8 -2 14 -9 13 -8 -2 -10 4 -6 14 4 10 2 14 -4 10 -5 -3 -27 9 -48 28
-41 38 -41 40 2 24 22 -8 25 -8 16 2 -10 10 -10 16 0 28 10 13 10 14 -3 5 -29
-20 -74 -16 -90 7 -26 37 -41 49 -53 42 -7 -4 -6 1 2 10 9 11 10 17 2 18 -6 1
-15 3 -21 4 -5 1 -15 3 -21 4 -6 0 -8 8 -5 17 4 10 1 14 -6 12 -13 -5 -52 30
-54 47 -3 26 -5 29 -13 16 -8 -12 -12 -12 -25 2 -21 20 -20 28 2 21 13 -5 14
-4 3 4 -8 6 -21 8 -29 4 -9 -3 -13 -1 -9 5 3 5 -5 16 -18 23 -14 7 -25 17 -25
22 0 4 -7 8 -15 8 -17 0 -37 34 -27 45 4 5 -1 5 -11 2 -15 -6 -17 -3 -12 13 7
21 -10 28 -18 8 -4 -9 -6 -10 -6 -1 -1 6 6 19 15 27 14 14 14 18 0 31 -17 17
-42 20 -51 5 -3 -5 0 -8 7 -5 7 3 20 1 28 -5 13 -8 12 -11 -5 -24 -18 -14 -21
-14 -35 3 -9 10 -22 20 -30 23 -12 4 -11 7 5 14 20 8 35 23 35 37 0 4 -16 7
-35 7 -19 0 -35 -4 -35 -10 0 -5 7 -10 15 -10 8 0 15 -4 15 -10 0 -13 -27 -13
-32 0 -1 5 -15 11 -30 12 -15 1 -24 6 -22 10 3 4 -2 8 -11 8 -9 0 -14 -4 -11
-9 3 -4 -6 -7 -19 -5 -16 1 -25 -3 -25 -12 0 -8 -6 -14 -14 -14 -8 0 -14 -8
-14 -17 1 -10 -4 -50 -11 -88 -7 -39 -10 -83 -7 -98 2 -15 1 -27 -3 -27 -11 0
6 -151 22 -199 9 -25 13 -49 9 -55 -3 -6 -7 -17 -8 -24 -2 -10 1 -10 12 -1 7
6 12 15 9 18 -2 4 2 8 9 8 8 0 12 -7 8 -15 -4 -11 -1 -13 8 -7 9 5 11 4 6 -3
-4 -7 -13 -12 -21 -12 -8 0 -17 -5 -21 -11 -4 -8 1 -9 16 -4 17 5 21 4 15 -5
-5 -9 -4 -11 4 -6 6 4 9 12 6 17 -4 5 4 9 16 9 17 0 20 -3 12 -11 -6 -6 -9
-18 -6 -26 5 -12 8 -11 23 2 17 15 19 13 33 -28 15 -44 7 -84 -14 -72 -5 3 -6
0 -3 -8 3 -10 -5 -14 -31 -15 -19 -1 -35 3 -35 8 0 6 -6 10 -14 10 -8 0 -16 6
-19 13 -2 6 -8 9 -12 5 -4 -4 5 -19 19 -33 32 -32 32 -41 4 -50 -36 -11 -166
-16 -148 -5 10 6 1 8 -28 7 -23 -1 -42 -5 -42 -10 0 -5 6 -7 14 -4 8 3 22 0
31 -7 17 -12 17 -13 1 -19 -11 -5 -15 -3 -10 5 5 8 -7 9 -45 5 -32 -4 -49 -3
-46 4 4 5 10 7 15 4 4 -3 12 1 18 8 8 10 0 12 -36 12 -35 0 -46 -4 -44 -14 3
-11 0 -12 -11 -2 -9 7 -28 9 -47 6 -20 -4 -29 -2 -25 5 3 5 -1 11 -9 11 -9 1
-21 2 -26 3 -6 0 -21 13 -34 28 -12 15 -26 25 -29 22 -3 -3 -4 2 -3 12 2 10 9
20 17 22 10 2 11 1 2 -5 -9 -6 -7 -12 8 -22 16 -9 19 -10 13 0 -5 9 -2 10 9 6
13 -5 17 -1 17 16 0 18 -2 19 -11 7 -8 -11 -12 -12 -16 -2 -2 6 -13 12 -24 12
-10 0 -19 5 -19 11 0 5 5 7 11 4 6 -4 10 -1 8 6 -3 28 1 40 13 33 8 -5 9 -1 4
12 -5 14 0 11 19 -9 14 -15 23 -32 20 -37 -3 -6 1 -7 9 -4 18 7 18 7 10 28 -3
9 -12 16 -20 16 -8 0 -14 5 -14 11 0 6 6 9 13 6 6 -2 22 -1 34 4 21 8 24 23
10 45 -4 7 0 14 8 18 8 3 15 12 15 21 0 8 3 15 8 15 4 0 8 43 10 96 1 53 5
101 8 105 7 12 7 466 0 478 -3 4 -6 48 -7 97 -1 49 -6 95 -13 103 -8 12 -8 13
2 7 6 -4 12 -3 12 3 0 5 -4 13 -10 16 -5 3 -10 17 -10 31 0 14 -4 23 -8 20 -5
-3 -9 0 -9 7 0 7 -4 20 -8 29 -5 13 0 20 20 28 24 9 25 11 11 26 -9 9 -14 19
-12 23 3 4 -1 8 -9 8 -8 0 -12 -4 -9 -9 3 -4 0 -8 -7 -8 -10 0 -10 -3 -1 -12
17 -17 15 -28 -4 -28 -8 0 -12 5 -9 10 3 6 1 10 -5 10 -6 0 -8 5 -5 10 3 6 -3
10 -14 10 -11 0 -26 9 -34 21 -8 11 -24 21 -35 22 -11 0 -18 5 -16 9 3 4 -1 8
-9 8 -8 0 -17 10 -19 23 -9 51 23 102 37 58 6 -21 35 -30 35 -11 0 6 -6 10
-13 10 -7 0 -17 8 -24 18 -9 15 -7 21 9 31 17 11 22 10 29 -1 6 -10 9 -8 9 7
0 14 7 21 22 22 11 1 24 6 27 11 3 5 56 10 116 11 61 1 111 6 113 10 6 17 92
-6 92 -25 0 -8 5 -12 10 -9 6 4 8 11 5 16 -4 5 -1 9 4 9 6 0 11 -4 11 -9 0
-12 39 -21 45 -11 3 5 -3 11 -12 14 -14 4 -14 4 2 3 12 -2 19 -10 19 -20 -2
-15 1 -16 13 -5 13 10 15 9 11 -7 -2 -13 -10 -19 -22 -17 -17 3 -18 2 -3 -12
19 -20 27 -20 27 -2 0 8 7 17 16 20 8 3 12 2 9 -4 -3 -6 4 -10 16 -10 19 0 20
-2 8 -17 -10 -12 -11 -15 -1 -9 15 9 45 -12 36 -25 -3 -5 0 -9 5 -9 6 0 11 6
12 13 0 7 3 6 6 -3 7 -17 33 -45 33 -34 0 3 7 1 15 -6 8 -7 13 -15 11 -19 -3
-4 9 -13 24 -20 16 -7 28 -18 27 -24 -1 -7 4 -11 11 -9 8 1 11 -2 7 -8 -3 -5
1 -10 11 -10 13 0 14 -3 4 -15 -10 -12 -9 -18 4 -31 14 -14 19 -14 33 -2 12 9
15 9 9 1 -4 -8 -1 -13 9 -13 8 0 18 -7 21 -15 4 -8 9 -13 13 -10 4 2 8 -2 8
-10 0 -8 -4 -12 -9 -9 -4 3 -8 1 -8 -4 0 -5 9 -12 19 -15 14 -3 18 -1 14 9 -3
8 -2 14 2 14 14 0 31 -26 32 -50 1 -14 7 -26 13 -28 5 -2 10 -13 10 -25 1 -20
2 -20 11 -4 8 13 6 21 -5 33 -9 8 -16 20 -16 25 0 6 12 -2 26 -16 22 -22 24
-28 12 -42 -9 -12 -9 -15 0 -9 7 4 12 1 12 -8 0 -9 5 -16 10 -16 14 0 13 13
-2 28 -7 7 -8 12 -2 12 5 0 16 -9 24 -20 8 -11 20 -20 28 -20 7 0 15 -7 18
-15 4 -8 10 -12 15 -9 5 3 9 0 9 -5 0 -6 -6 -11 -12 -12 -7 0 5 -6 27 -14 22
-7 36 -13 32 -14 -11 -1 58 -61 72 -61 5 0 8 -7 5 -15 -4 -10 0 -15 15 -15 14
0 21 -6 21 -20 0 -13 7 -20 20 -20 16 0 20 7 20 30 0 23 5 30 19 30 11 0 22 6
24 13 4 9 8 8 16 -3 9 -13 12 -12 17 8 8 27 21 28 29 2 6 -20 35 -28 35 -10 0
6 -4 10 -10 10 -5 0 -10 9 -10 20 0 13 7 20 20 20 11 0 20 5 20 10 0 16 -48
11 -70 -7 -11 -10 -20 -24 -21 -33 0 -10 -2 -11 -6 -2 -2 6 -10 10 -16 6 -7
-3 -4 1 5 9 10 8 15 17 11 20 -3 4 -1 7 6 7 9 0 9 5 0 21 -8 15 -8 19 0 15 6
-4 11 0 11 9 0 10 -5 13 -12 9 -10 -6 -10 -5 -2 7 11 13 11 95 0 106 -2 3 -1
15 4 27 5 14 3 28 -6 40 -7 11 -11 23 -8 28 3 5 0 16 -7 25 -11 12 -11 17 1
27 13 9 16 36 11 84 0 6 -6 12 -12 12 -7 0 -10 -17 -7 -45 3 -44 -7 -60 -18
-30 -4 8 -13 15 -21 15 -8 0 -12 4 -9 9 3 5 -1 12 -10 15 -10 4 -13 2 -8 -7 3
-6 -6 2 -21 18 -14 17 -23 23 -19 15 7 -13 5 -13 -9 -1 -9 7 -14 17 -11 23 3
5 0 16 -8 25 -11 14 -11 16 2 8 12 -6 13 -5 3 6 -20 21 -15 42 16 69 17 13 28
27 26 31 -3 3 3 6 13 6 38 0 53 3 48 11 -6 10 56 8 74 -3 9 -5 11 -4 6 4 -6 9
19 12 104 10 61 -1 113 1 116 4 9 9 34 -4 34 -17z m-1496 -282 c3 -8 2 -12 -4
-9 -6 3 -10 10 -10 16 0 14 7 11 14 -7z m661 -15 c11 -17 -1 -21 -15 -4 -8 9
-8 15 -2 15 6 0 14 -5 17 -11z m-678 -1105 c0 -15 -35 -26 -43 -13 -3 5 0 8 8
7 7 -2 12 2 11 8 -1 6 4 11 11 11 7 0 13 -6 13 -13z m1321 -172 c6 -18 -15
-14 -22 4 -4 10 -1 14 6 12 6 -2 14 -10 16 -16z m-1218 -51 c0 -6 -4 -12 -8
-15 -5 -3 -9 1 -9 9 0 8 4 15 9 15 4 0 8 -4 8 -9z"/>
<path d="M2865 5111 c-3 -5 -2 -12 3 -15 5 -3 9 1 9 9 0 17 -3 19 -12 6z"/>
<path d="M1745 5092 c16 -20 17 -25 5 -32 -8 -5 -11 -13 -6 -17 5 -4 11 -2 13
5 3 8 26 12 64 12 33 0 59 4 59 10 0 6 -26 10 -57 10 -39 0 -63 5 -77 18 l-21
17 20 -23z"/>
<path d="M2821 5101 c-11 -7 -11 -9 0 -14 10 -4 9 -6 -3 -6 -9 -1 -20 -6 -24
-13 -4 -7 -3 -8 5 -4 6 4 14 0 17 -8 3 -9 11 -16 16 -16 6 0 7 8 4 17 -4 9 -1
20 6 25 11 6 10 8 0 8 -7 0 -10 5 -7 10 8 12 4 12 -14 1z"/>
<path d="M1684 5085 c-12 -8 -24 -11 -28 -8 -3 3 -6 1 -6 -5 0 -16 39 -9 51 9
8 13 13 6 10 -13 0 -5 4 -8 10 -8 13 0 8 32 -6 37 -6 2 -20 -3 -31 -12z"/>
<path d="M1920 5070 c0 -5 5 -10 10 -10 6 0 10 5 10 10 0 6 -4 10 -10 10 -5 0
-10 -4 -10 -10z"/>
<path d="M2024 5069 c-4 -8 1 -9 17 -4 18 5 20 4 9 -4 -8 -5 -11 -13 -7 -18 8
-7 27 14 27 30 0 11 -38 8 -46 -4z"/>
<path d="M3366 5068 c3 -5 10 -6 15 -3 13 9 11 12 -6 12 -8 0 -12 -4 -9 -9z"/>
<path d="M2860 5040 c0 -11 5 -20 10 -20 6 0 10 9 10 20 0 11 -4 20 -10 20 -5
0 -10 -9 -10 -20z"/>
<path d="M1710 5012 c0 -7 -7 -12 -15 -12 -8 0 -15 -4 -15 -10 0 -16 27 -11
34 6 4 9 4 19 1 22 -3 3 -5 0 -5 -6z"/>
<path d="M1740 5010 c0 -5 5 -10 10 -10 6 0 10 5 10 10 0 6 -4 10 -10 10 -5 0
-10 -4 -10 -10z"/>
<path d="M2080 5010 c0 -5 7 -10 15 -10 8 0 15 5 15 10 0 6 -7 10 -15 10 -8 0
-15 -4 -15 -10z"/>
<path d="M2176 5001 c-3 -5 -15 -7 -26 -4 -11 3 -20 0 -20 -6 0 -6 13 -10 28
-9 16 1 29 8 29 15 0 15 -4 16 -11 4z"/>
<path d="M1650 4990 c0 -5 5 -10 10 -10 6 0 10 5 10 10 0 6 -4 10 -10 10 -5 0
-10 -4 -10 -10z"/>
<path d="M1960 4990 c0 -5 9 -10 20 -10 11 0 20 5 20 10 0 6 -9 10 -20 10 -11
0 -20 -4 -20 -10z"/>
<path d="M1585 4980 c-7 -12 12 -40 26 -40 5 0 9 5 9 10 0 6 -7 10 -15 10 -9
0 -12 6 -9 15 7 17 -2 20 -11 5z"/>
<path d="M2845 4970 c3 -5 8 -10 11 -10 2 0 4 5 4 10 0 6 -5 10 -11 10 -5 0
-7 -4 -4 -10z"/>
<path d="M2880 4970 c0 -5 5 -10 10 -10 6 0 10 5 10 10 0 6 -4 10 -10 10 -5 0
-10 -4 -10 -10z"/>
<path d="M3000 4970 c0 -5 5 -10 10 -10 6 0 10 5 10 10 0 6 -4 10 -10 10 -5 0
-10 -4 -10 -10z"/>
<path d="M3211 4964 c-7 -8 -10 -18 -6 -22 4 -4 10 -1 12 6 7 19 23 14 23 -8
0 -11 -4 -20 -10 -20 -5 0 -10 -7 -10 -15 0 -8 5 -15 11 -15 6 0 3 -7 -5 -16
-9 -8 -16 -18 -17 -22 -5 -47 -4 -60 7 -51 7 5 11 18 9 27 -1 9 2 26 8 37 6
11 10 28 8 38 -1 10 4 17 13 17 21 0 20 12 -3 38 -22 26 -22 26 -40 6z"/>
<path d="M2253 4954 c-7 -7 -9 -15 -5 -17 4 -3 13 1 19 9 7 7 9 15 5 17 -4 3
-13 -1 -19 -9z"/>
<path d="M1640 4950 c0 -5 9 -10 20 -10 11 0 20 -4 20 -10 0 -5 11 -10 25 -10
14 0 25 5 25 10 0 6 7 10 15 10 8 0 15 5 15 10 0 6 -7 10 -15 10 -8 0 -15 -4
-15 -10 0 -5 -11 -10 -25 -10 -14 0 -25 5 -25 10 0 6 -9 10 -20 10 -11 0 -20
-4 -20 -10z"/>
<path d="M2980 4910 c0 -16 5 -30 10 -30 6 0 10 14 10 30 0 17 -4 30 -10 30
-5 0 -10 -13 -10 -30z"/>
<path d="M2240 4890 c0 -5 5 -10 10 -10 6 0 10 5 10 10 0 6 -4 10 -10 10 -5 0
-10 -4 -10 -10z"/>
<path d="M2300 4880 c0 -11 -4 -20 -10 -20 -5 0 -10 -4 -10 -10 0 -16 19 -12
41 9 22 20 18 41 -7 41 -8 0 -14 -9 -14 -20z"/>
<path d="M2960 4840 c0 -11 5 -20 10 -20 6 0 10 9 10 20 0 11 -4 20 -10 20 -5
0 -10 -9 -10 -20z"/>
<path d="M3000 4850 c0 -5 5 -10 10 -10 6 0 10 5 10 10 0 6 -4 10 -10 10 -5 0
-10 -4 -10 -10z"/>
<path d="M2240 4830 c0 -5 5 -10 10 -10 6 0 10 5 10 10 0 6 -4 10 -10 10 -5 0
-10 -4 -10 -10z"/>
<path d="M2325 4830 c3 -5 10 -10 16 -10 5 0 9 5 9 10 0 6 -7 10 -16 10 -8 0
-12 -4 -9 -10z"/>
<path d="M1745 4809 c6 -32 13 -34 13 -4 0 14 -4 25 -9 25 -4 0 -6 -10 -4 -21z"/>
<path d="M2403 4768 c0 -27 4 -48 10 -48 5 0 6 7 3 16 -5 12 -2 15 11 10 15
-6 16 -5 1 11 -9 10 -18 27 -20 38 -3 11 -5 -1 -5 -27z"/>
<path d="M2420 4790 c0 -5 5 -10 10 -10 6 0 10 5 10 10 0 6 -4 10 -10 10 -5 0
-10 -4 -10 -10z"/>
<path d="M3207 4769 c7 -7 15 -10 18 -7 3 3 -2 9 -12 12 -14 6 -15 5 -6 -5z"/>
<path d="M2464 4732 c-1 -9 -5 -26 -10 -37 -6 -16 -2 -14 19 7 32 32 34 43 9
45 -10 1 -18 -6 -18 -15z"/>
<path d="M2985 4669 c0 -27 1 -49 3 -49 2 0 11 8 20 17 12 12 13 18 4 21 -6 2
-12 11 -12 20 0 10 -4 22 -8 29 -4 6 -7 -11 -7 -38z"/>
<path d="M2420 4670 c0 -5 5 -10 10 -10 6 0 10 5 10 10 0 6 -4 10 -10 10 -5 0
-10 -4 -10 -10z"/>
<path d="M1821 4654 c0 -11 3 -14 6 -6 3 7 2 16 -1 19 -3 4 -6 -2 -5 -13z"/>
<path d="M2560 4610 c0 -5 5 -10 10 -10 6 0 10 5 10 10 0 6 -4 10 -10 10 -5 0
-10 -4 -10 -10z"/>
<path d="M2613 4585 c-18 -19 -16 -25 6 -25 19 0 35 23 24 34 -9 9 -17 7 -30
-9z"/>
<path d="M2680 4574 c0 -10 28 -34 41 -34 7 0 4 9 -9 20 -21 20 -32 25 -32 14z"/>
<path d="M2660 4534 c0 -10 31 -36 37 -31 3 3 -2 13 -10 22 -16 15 -27 19 -27
9z"/>
<path d="M2731 4526 c-9 -11 -9 -16 1 -22 7 -4 10 -4 6 1 -4 4 -3 14 3 22 6 7
9 13 6 13 -2 0 -10 -6 -16 -14z"/>
<path d="M2570 4510 c0 -5 5 -10 10 -10 6 0 10 5 10 10 0 6 -4 10 -10 10 -5 0
-10 -4 -10 -10z"/>
<path d="M1833 4450 c0 -30 2 -43 4 -27 2 15 2 39 0 55 -2 15 -4 2 -4 -28z"/>
<path d="M1880 4350 c0 -5 5 -10 10 -10 6 0 10 5 10 10 0 6 -4 10 -10 10 -5 0
-10 -4 -10 -10z"/>
<path d="M1833 4260 c0 -47 2 -66 4 -42 2 23 2 61 0 85 -2 23 -4 4 -4 -43z"/>
<path d="M2300 4335 c0 -12 50 -55 64 -55 8 0 16 -6 19 -12 2 -7 8 -10 12 -6
4 4 0 14 -9 23 -9 9 -16 21 -16 26 0 5 -7 9 -15 9 -8 0 -15 5 -15 10 0 6 -9
10 -20 10 -11 0 -20 -2 -20 -5z"/>
<path d="M2084 4305 c0 -14 4 -25 8 -25 4 0 8 11 8 25 0 14 -4 25 -8 25 -4 0
-8 -11 -8 -25z"/>
<path d="M2115 4320 c-12 -20 9 -28 35 -14 14 8 20 14 13 14 -6 0 -18 3 -26 6
-8 3 -18 0 -22 -6z"/>
<path d="M2180 4321 c0 -10 19 -25 25 -20 1 2 -3 10 -11 17 -8 7 -14 8 -14 3z"/>
<path d="M2370 4210 c0 -5 7 -10 15 -10 8 0 15 5 15 10 0 6 -7 10 -15 10 -8 0
-15 -4 -15 -10z"/>
<path d="M1792 4160 c0 -14 2 -19 5 -12 2 6 2 18 0 25 -3 6 -5 1 -5 -13z"/>
<path d="M1900 4170 c0 -5 9 -10 20 -10 11 0 20 5 20 10 0 6 -9 10 -20 10 -11
0 -20 -4 -20 -10z"/>
<path d="M2002 4139 c-2 -46 8 -60 41 -58 7 0 3 4 -8 8 -14 6 -22 21 -26 52
l-6 44 -1 -46z"/>
<path d="M2393 4160 c1 -11 7 -20 14 -20 17 0 16 8 -1 26 -13 12 -15 12 -13
-6z"/>
<path d="M2460 4171 c0 -5 6 -12 13 -14 9 -4 9 -7 0 -14 -18 -13 -4 -51 21
-59 11 -4 24 -12 28 -18 4 -6 10 -7 14 -4 4 4 -7 15 -25 25 -31 18 -41 48 -19
55 9 3 8 9 -4 21 -19 19 -28 22 -28 8z"/>
<path d="M2540 4141 c0 -11 -5 -21 -12 -23 -8 -3 -5 -12 10 -28 12 -13 22 -19
22 -14 0 6 -6 16 -12 23 -10 11 -10 14 0 18 14 6 16 43 2 43 -5 0 -10 -9 -10
-19z"/>
<path d="M2032 4120 c0 -14 2 -19 5 -12 2 6 2 18 0 25 -3 6 -5 1 -5 -13z"/>
<path d="M1830 4050 c0 -20 5 -30 15 -30 10 0 15 10 15 30 0 20 -5 30 -15 30
-10 0 -15 -10 -15 -30z"/>
<path d="M1960 4020 c0 -33 4 -60 10 -60 6 0 10 27 10 60 0 33 -4 60 -10 60
-6 0 -10 -27 -10 -60z"/>
<path d="M2029 4062 c9 -7 10 -11 2 -15 -7 -4 -8 -5 0 -3 15 2 13 20 -3 24
-10 3 -10 2 1 -6z"/>
<path d="M2545 4010 c-3 -5 -1 -10 4 -10 6 0 11 5 11 10 0 6 -2 10 -4 10 -3 0
-8 -4 -11 -10z"/>
<path d="M2597 4013 c7 -2 11 -10 9 -16 -1 -7 -1 -8 2 -4 2 4 10 3 17 -3 11
-9 12 -7 9 7 -3 11 -15 19 -27 20 -12 0 -17 -1 -10 -4z"/>
<path d="M2691 3984 c-18 -21 -6 -30 14 -11 8 9 15 18 15 21 0 11 -15 5 -29
-10z"/>
<path d="M2013 3945 c-15 -17 -17 -85 -3 -85 6 0 10 9 10 20 0 11 5 20 10 20
6 0 10 14 10 30 0 33 -8 37 -27 15z"/>
<path d="M2630 3951 c0 -5 7 -12 16 -15 22 -9 24 -8 18 9 -7 16 -34 21 -34 6z"/>
<path d="M2692 3880 c7 -11 16 -20 20 -20 15 0 8 15 -12 28 -19 12 -20 11 -8
-8z"/>
<path d="M1920 3870 c0 -5 5 -10 10 -10 6 0 10 5 10 10 0 6 -4 10 -10 10 -5 0
-10 -4 -10 -10z"/>
<path d="M2797 3847 c-4 -10 2 -13 19 -9 13 2 24 8 24 13 0 14 -37 10 -43 -4z"/>
<path d="M2860 3830 c0 -5 5 -10 10 -10 6 0 10 5 10 10 0 6 -4 10 -10 10 -5 0
-10 -4 -10 -10z"/>
<path d="M2800 3790 c0 -5 11 -10 24 -10 13 0 33 -3 43 -7 17 -6 17 -6 1 10
-18 18 -68 23 -68 7z"/>
<path d="M1745 3743 c3 -3 0 -12 -5 -18 -6 -7 -8 -20 -4 -29 7 -18 24 -22 24
-6 0 6 -4 10 -10 10 -5 0 -10 5 -10 11 0 5 4 8 9 5 11 -7 9 21 -2 29 -4 3 -5
2 -2 -2z"/>
<path d="M2094 3695 c16 -16 46 -20 46 -6 0 10 -24 21 -47 21 -13 0 -13 -2 1
-15z"/>
<path d="M2914 3688 c10 -6 22 -6 26 -2 5 5 -3 10 -18 11 -22 1 -24 0 -8 -9z"/>
<path d="M2960 3690 c0 -5 5 -10 10 -10 6 0 10 5 10 10 0 6 -4 10 -10 10 -5 0
-10 -4 -10 -10z"/>
<path d="M3100 3690 c0 -5 5 -10 10 -10 6 0 10 5 10 10 0 6 -4 10 -10 10 -5 0
-10 -4 -10 -10z"/>
<path d="M3130 3690 c0 -5 5 -10 10 -10 6 0 10 5 10 10 0 6 -4 10 -10 10 -5 0
-10 -4 -10 -10z"/>
<path d="M3020 3670 c0 -5 5 -10 10 -10 6 0 10 5 10 10 0 6 -4 10 -10 10 -5 0
-10 -4 -10 -10z"/>
<path d="M3060 3640 c0 -22 5 -40 10 -40 6 0 10 6 10 13 0 8 4 7 11 -3 10 -15
9 -6 -7 50 -9 34 -24 22 -24 -20z"/>
<path d="M2173 3650 c-3 -11 -9 -17 -14 -14 -12 7 -11 -7 1 -26 6 -10 10 -11
10 -2 0 6 7 12 15 12 8 0 15 5 15 10 0 6 -4 10 -10 10 -5 0 -10 5 -10 11 0 5
5 7 10 4 6 -3 10 -1 10 4 0 19 -22 12 -27 -9z"/>
<path d="M3162 3631 c-10 -29 -10 -31 8 -21 22 12 24 18 11 38 -6 10 -11 6
-19 -17z"/>
<path d="M1725 3620 c-3 -11 -14 -20 -23 -20 -24 -1 -56 -26 -43 -35 6 -3 11
0 11 7 0 10 2 10 9 -1 7 -11 17 -6 45 22 40 40 43 47 22 47 -8 0 -18 -9 -21
-20z"/>
<path d="M3127 3621 c-4 -17 -3 -21 5 -13 5 5 8 16 6 23 -3 8 -7 3 -11 -10z"/>
<path d="M3110 3569 c0 -6 4 -8 9 -5 5 4 11 1 13 -6 3 -8 6 -7 10 3 4 10 -1
15 -13 16 -10 1 -19 -3 -19 -8z"/>
<path d="M1730 3550 c0 -5 7 -10 15 -10 8 0 15 5 15 10 0 6 -7 10 -15 10 -8 0
-15 -4 -15 -10z"/>
<path d="M2080 3550 c0 -5 5 -10 10 -10 6 0 10 5 10 10 0 6 -4 10 -10 10 -5 0
-10 -4 -10 -10z"/>
<path d="M3487 5508 c-3 -9 3 -14 14 -14 11 0 18 5 16 10 -5 16 -24 18 -30 4z"/>
<path d="M3720 5510 c0 -5 -7 -10 -15 -10 -8 0 -15 -4 -15 -10 0 -5 11 -10 25
-10 14 0 25 -4 25 -10 0 -13 27 -13 35 0 4 6 3 10 -2 9 -22 -4 -33 3 -33 21 0
11 -4 20 -10 20 -5 0 -10 -4 -10 -10z"/>
<path d="M2738 5493 c12 -2 32 -2 45 0 12 2 2 4 -23 4 -25 0 -35 -2 -22 -4z"/>
<path d="M1344 5435 c-6 -23 0 -45 10 -34 10 12 15 59 6 59 -5 0 -12 -11 -16
-25z"/>
<path d="M1545 5451 c-3 -5 -2 -12 3 -15 5 -3 9 1 9 9 0 17 -3 19 -12 6z"/>
<path d="M1260 5430 c0 -5 5 -10 10 -10 6 0 10 5 10 10 0 6 -4 10 -10 10 -5 0
-10 -4 -10 -10z"/>
<path d="M3600 5430 c0 -5 5 -10 10 -10 6 0 10 5 10 10 0 6 -4 10 -10 10 -5 0
-10 -4 -10 -10z"/>
<path d="M1260 5390 c0 -5 5 -10 10 -10 6 0 10 5 10 10 0 6 -4 10 -10 10 -5 0
-10 -4 -10 -10z"/>
<path d="M3620 5370 c0 -16 5 -30 10 -30 6 0 10 14 10 30 0 17 -4 30 -10 30
-5 0 -10 -13 -10 -30z"/>
<path d="M3660 5370 c0 -5 5 -10 10 -10 6 0 10 5 10 10 0 6 -4 10 -10 10 -5 0
-10 -4 -10 -10z"/>
<path d="M1230 5330 c0 -5 7 -10 15 -10 8 0 15 5 15 10 0 6 -7 10 -15 10 -8 0
-15 -4 -15 -10z"/>
<path d="M3597 5314 c3 -7 9 -14 14 -14 14 0 10 17 -5 23 -10 4 -13 1 -9 -9z"/>
<path d="M1300 5310 c0 -5 5 -10 10 -10 6 0 10 5 10 10 0 6 -4 10 -10 10 -5 0
-10 -4 -10 -10z"/>
<path d="M3640 5310 c0 -5 5 -10 10 -10 6 0 10 5 10 10 0 6 -4 10 -10 10 -5 0
-10 -4 -10 -10z"/>
<path d="M1320 5190 c0 -5 5 -10 10 -10 6 0 10 5 10 10 0 6 -4 10 -10 10 -5 0
-10 -4 -10 -10z"/>
<path d="M1320 5150 c0 -5 9 -10 20 -10 11 0 20 5 20 10 0 6 -9 10 -20 10 -11
0 -20 -4 -20 -10z"/>
<path d="M3584 3369 c-3 -6 -1 -16 5 -22 8 -8 11 -5 11 11 0 24 -5 28 -16 11z"/>
<path d="M3640 3343 c0 -21 5 -45 10 -53 7 -11 10 0 10 38 0 28 -4 52 -10 52
-5 0 -10 -17 -10 -37z"/>
<path d="M3701 3358 c0 -13 3 -17 6 -10 2 6 11 12 19 12 8 0 14 5 14 10 0 6
-9 10 -20 10 -14 0 -20 -6 -19 -22z"/>
<path d="M1364 3342 c0 -10 6 -19 13 -19 8 0 9 6 2 19 -5 10 -11 18 -12 18 -2
0 -3 -8 -3 -18z"/>
<path d="M3680 3290 c0 -16 5 -30 10 -30 6 0 10 14 10 30 0 17 -4 30 -10 30
-5 0 -10 -13 -10 -30z"/>
<path d="M1371 3294 c0 -11 3 -14 6 -6 3 7 2 16 -1 19 -3 4 -6 -2 -5 -13z"/>
<path d="M1380 3246 c0 -8 4 -17 9 -20 5 -4 7 3 4 14 -6 23 -13 26 -13 6z"/>
<path d="M3600 3240 c0 -11 5 -20 10 -20 6 0 10 9 10 20 0 11 -4 20 -10 20 -5
0 -10 -9 -10 -20z"/>
<path d="M1252 3215 c-15 -32 -15 -55 -2 -55 6 0 10 14 10 30 0 17 5 30 10 30
6 0 10 5 10 10 0 19 -17 10 -28 -15z"/>
<path d="M1340 3230 c0 -5 7 -10 15 -10 8 0 15 5 15 10 0 6 -7 10 -15 10 -8 0
-15 -4 -15 -10z"/>
<path d="M3520 3230 c0 -5 7 -10 15 -10 8 0 15 5 15 10 0 6 -7 10 -15 10 -8 0
-15 -4 -15 -10z"/>
<path d="M3710 3230 c0 -5 7 -10 15 -10 8 0 15 5 15 10 0 6 -7 10 -15 10 -8 0
-15 -4 -15 -10z"/>
<path d="M1200 3210 c0 -5 5 -10 10 -10 6 0 10 5 10 10 0 6 -4 10 -10 10 -5 0
-10 -4 -10 -10z"/>
<path d="M3680 3210 c0 -5 5 -10 10 -10 6 0 10 5 10 10 0 6 -4 10 -10 10 -5 0
-10 -4 -10 -10z"/>
<path d="M1440 3190 c0 -5 5 -10 10 -10 6 0 10 5 10 10 0 6 -4 10 -10 10 -5 0
-10 -4 -10 -10z"/>
<path d="M1928 3183 c6 -2 18 -2 25 0 6 3 1 5 -13 5 -14 0 -19 -2 -12 -5z"/>
<path d="M1535 3172 c-22 -16 -12 -28 24 -28 23 0 38 4 38 12 0 7 -6 10 -13 7
-6 -2 -15 0 -19 6 -7 13 -16 14 -30 3z m25 -12 c0 -5 -2 -10 -4 -10 -3 0 -8 5
-11 10 -3 6 -1 10 4 10 6 0 11 -4 11 -10z"/>
<path d="M3680 3170 c0 -5 5 -10 10 -10 6 0 10 5 10 10 0 6 -4 10 -10 10 -5 0
-10 -4 -10 -10z"/>
<path d="M1256 3124 c-5 -14 -4 -15 9 -4 17 14 19 20 6 20 -5 0 -12 -7 -15
-16z"/>
<path d="M1560 3070 c0 -5 9 -10 20 -10 11 0 20 5 20 10 0 6 -9 10 -20 10 -11
0 -20 -4 -20 -10z"/>
<path d="M1265 3044 c11 -9 21 -10 23 -5 2 5 11 7 20 4 9 -3 14 -3 10 2 -4 4
-22 9 -40 10 -30 3 -31 2 -13 -11z"/>
<path d="M1338 3053 c6 -3 10 -9 7 -14 -4 -5 1 -6 9 -3 23 9 19 20 -6 21 -13
0 -17 -1 -10 -4z"/>
<path d="M1760 3050 c0 -5 9 -10 20 -10 11 0 20 5 20 10 0 6 -9 10 -20 10 -11
0 -20 -4 -20 -10z"/>
<path d="M3068 3053 c6 -2 18 -2 25 0 6 3 1 5 -13 5 -14 0 -19 -2 -12 -5z"/>
<path d="M3156 3048 c3 -5 10 -6 15 -3 13 9 11 12 -6 12 -8 0 -12 -4 -9 -9z"/>
<path d="M3210 3050 c0 -5 11 -10 25 -10 14 0 25 5 25 10 0 6 -11 10 -25 10
-14 0 -25 -4 -25 -10z"/>
<path d="M3320 3056 c0 -2 9 -6 20 -9 11 -3 18 -1 14 4 -5 9 -34 13 -34 5z"/>
<path d="M3525 3050 c-3 -6 1 -7 9 -4 18 7 21 14 7 14 -6 0 -13 -4 -16 -10z"/>
<path d="M2408 3038 c5 -5 16 -8 23 -6 8 3 3 7 -10 11 -17 4 -21 3 -13 -5z"/>
<path d="M1410 3033 c0 -5 4 -14 9 -22 8 -12 12 -12 25 2 22 22 20 27 -9 27
-14 0 -25 -3 -25 -7z"/>
<path d="M1820 3030 c0 -5 23 -10 50 -10 28 0 50 5 50 10 0 6 -22 10 -50 10
-27 0 -50 -4 -50 -10z"/>
<path d="M2320 3030 c0 -5 5 -10 10 -10 6 0 10 5 10 10 0 6 -4 10 -10 10 -5 0
-10 -4 -10 -10z"/>
<path d="M5535 3020 c3 -5 1 -10 -5 -12 -6 -2 -6 -8 0 -18 8 -13 10 -13 10 2
0 9 8 18 18 20 14 3 13 5 -6 10 -12 3 -20 2 -17 -2z"/>
<path d="M5673 3023 c-31 -11 -8 -24 37 -21 27 2 50 7 50 12 0 4 -15 5 -34 2
-19 -4 -36 -3 -38 2 -1 5 -9 7 -15 5z"/>
<path d="M5845 3019 c-11 -16 -1 -19 13 -3 7 8 8 14 3 14 -5 0 -13 -5 -16 -11z"/>
<path d="M5440 3010 c0 -5 5 -10 10 -10 6 0 10 5 10 10 0 6 -4 10 -10 10 -5 0
-10 -4 -10 -10z"/>
<path d="M5583 3000 c1 -21 10 -18 13 5 1 8 -2 15 -6 15 -5 0 -8 -9 -7 -20z"/>
<path d="M5800 3010 c0 -5 5 -10 10 -10 6 0 10 5 10 10 0 6 -4 10 -10 10 -5 0
-10 -4 -10 -10z"/>
<path d="M4973 3003 c-23 -9 -14 -23 15 -22 15 0 21 3 14 6 -6 2 -10 9 -6 14
6 10 -3 11 -23 2z"/>
<path d="M5284 2984 c-1 -17 3 -24 17 -24 24 0 24 12 2 33 -17 14 -18 14 -19
-9z"/>
<path d="M5315 3000 c3 -5 11 -10 16 -10 6 0 7 5 4 10 -3 6 -11 10 -16 10 -6
0 -7 -4 -4 -10z"/>
<path d="M4850 2990 c-12 -7 -10 -9 8 -7 12 0 22 5 22 9 0 11 -12 10 -30 -2z"/>
<path d="M5040 2990 c0 -5 14 -10 30 -10 17 0 30 5 30 10 0 6 -13 10 -30 10
-16 0 -30 -4 -30 -10z"/>
<path d="M5920 2990 c0 -5 -22 -10 -50 -10 -27 0 -50 -4 -50 -10 0 -5 23 -10
50 -10 28 0 50 5 50 10 0 6 33 10 80 10 47 0 80 4 80 10 0 6 -33 10 -80 10
-47 0 -80 -4 -80 -10z"/>
<path d="M6265 2990 c3 -5 -2 -16 -11 -25 -9 -9 -13 -19 -9 -23 4 -4 10 -1 12
6 3 7 12 20 21 28 14 15 17 15 27 0 17 -22 28 -20 16 3 -6 10 -21 19 -36 19
-13 0 -22 -4 -20 -8z"/>
<path d="M5346 2981 c-4 -7 -5 -15 -2 -18 9 -9 19 4 14 18 -4 11 -6 11 -12 0z"/>
<path d="M4300 2970 c0 -5 5 -10 10 -10 6 0 10 5 10 10 0 6 -4 10 -10 10 -5 0
-10 -4 -10 -10z"/>
<path d="M5600 2970 c0 -5 5 -10 10 -10 6 0 10 5 10 10 0 6 -4 10 -10 10 -5 0
-10 -4 -10 -10z"/>
<path d="M6323 2928 c1 -15 6 -23 11 -18 4 4 4 16 -2 26 -9 16 -10 14 -9 -8z"/>
<path d="M3937 2933 c-3 -5 1 -14 8 -20 11 -10 13 -9 12 7 -1 20 -12 26 -20
13z"/>
<path d="M3998 2902 c13 -14 20 -15 30 -6 19 19 15 24 -18 24 -29 0 -29 -1
-12 -18z"/>
<path d="M4146 2904 c-9 -24 0 -29 19 -11 19 19 19 27 1 27 -8 0 -17 -7 -20
-16z"/>
<path d="M4460 2900 c0 -11 -4 -20 -10 -20 -5 0 -10 -4 -10 -10 0 -5 9 -10 19
-10 11 0 21 -6 24 -12 2 -8 8 -9 13 -4 5 5 4 11 -3 13 -7 3 -13 18 -13 34 0
16 -4 29 -10 29 -5 0 -10 -9 -10 -20z"/>
<path d="M5300 2910 c0 -5 5 -10 10 -10 6 0 10 5 10 10 0 6 -4 10 -10 10 -5 0
-10 -4 -10 -10z"/>
<path d="M5340 2910 c0 -5 5 -10 10 -10 6 0 10 5 10 10 0 6 -4 10 -10 10 -5 0
-10 -4 -10 -10z"/>
<path d="M5560 2910 c0 -5 9 -10 20 -10 11 0 20 5 20 10 0 6 -9 10 -20 10 -11
0 -20 -4 -20 -10z"/>
<path d="M5620 2914 c0 -14 31 -34 54 -34 30 0 32 5 12 26 -14 13 -66 20 -66
8z"/>
<path d="M5760 2910 c0 -5 9 -10 20 -10 11 0 20 5 20 10 0 6 -9 10 -20 10 -11
0 -20 -4 -20 -10z"/>
<path d="M6230 2900 c-15 -21 -50 -28 -50 -10 0 6 -9 10 -20 10 -11 0 -20 -4
-20 -10 0 -5 -8 -10 -18 -10 -10 0 -24 -9 -32 -20 -12 -17 -26 -20 -91 -20
-46 0 -79 -4 -81 -11 -5 -16 -289 -13 -300 3 -6 10 -8 9 -8 -2 0 -12 -17 -15
-93 -16 -50 0 -167 -2 -258 -4 -91 -2 -171 0 -177 4 -6 3 -14 1 -17 -4 -4 -7
-40 -10 -91 -9 -47 1 -87 -1 -91 -5 -9 -9 -86 -7 -102 3 -8 5 4 7 33 4 31 -4
46 -2 46 6 0 7 -20 10 -60 9 l-61 -3 23 -19 23 -19 -34 8 c-23 5 -31 4 -27 -4
4 -6 2 -11 -3 -11 -6 0 -11 3 -11 8 0 4 -47 7 -105 7 -58 -1 -105 3 -105 8 0
4 5 5 10 2 6 -3 10 0 10 7 0 10 3 9 11 -2 8 -12 10 -12 7 -1 -2 8 -14 15 -26
16 -11 1 -19 -2 -16 -6 9 -15 -29 -26 -67 -19 -22 4 -41 4 -44 0 -2 -4 -36 -8
-75 -9 -67 -2 -74 1 -72 29 0 3 -16 6 -36 7 -20 0 -31 -2 -24 -4 6 -3 12 -16
12 -30 0 -15 -3 -23 -7 -20 -3 4 -17 0 -30 -8 -13 -9 -23 -12 -23 -7 0 12 37
41 44 35 3 -4 6 -1 6 5 0 16 -11 15 -39 -4 -23 -16 -23 -16 -17 7 l7 24 -21
-24 c-12 -14 -19 -33 -17 -42 3 -9 -4 -30 -14 -46 -10 -15 -19 -42 -19 -60 0
-27 -3 -31 -22 -27 -13 2 -18 2 -11 -2 7 -3 11 -11 9 -17 -1 -7 -1 -9 1 -4 3
4 8 7 11 7 4 0 7 -438 7 -972 0 -535 3 -980 6 -988 16 -40 22 -49 30 -44 5 3
9 2 8 -3 -1 -4 1 -16 5 -25 10 -23 0 -51 -15 -42 -8 4 -9 3 -5 -4 5 -9 14 -7
32 4 24 17 34 31 12 18 -7 -4 -10 -3 -5 1 4 5 18 10 30 12 15 2 18 0 9 -6 -11
-6 -10 -9 3 -15 23 -8 27 -8 21 3 -4 5 4 7 15 4 21 -6 21 -6 -2 -19 -18 -9
-27 -10 -39 -1 -13 10 -13 10 -2 -4 7 -9 24 -16 38 -16 20 -1 23 2 13 9 -10 7
-8 8 9 5 13 -3 20 -1 16 5 -4 5 13 8 43 6 27 -2 47 -8 46 -14 -1 -6 5 -11 13
-11 8 0 12 3 9 5 -3 3 0 11 7 19 9 11 7 12 -8 6 -16 -6 -17 -5 -4 9 13 13 16
13 25 1 9 -12 15 -12 40 1 28 15 30 15 33 -4 3 -18 24 -26 55 -21 4 0 7 -3 7
-7 0 -5 7 -9 14 -9 8 0 15 3 14 6 -2 19 4 24 12 11 5 -8 10 -10 10 -5 0 6 43
9 116 7 64 -2 121 1 126 6 5 5 -39 8 -109 7 -70 -1 -123 2 -132 9 -10 7 -16 6
-26 -7 -14 -19 -30 -23 -19 -5 6 10 5 10 -7 1 -12 -10 -15 -9 -15 6 0 19 3 19
119 24 42 2 77 1 77 -2 0 -3 63 -5 140 -5 80 1 138 -2 134 -7 -3 -5 15 -9 40
-9 25 0 46 -4 46 -10 0 -5 14 -10 30 -10 17 0 30 5 30 10 0 6 -9 10 -20 10
-11 0 -20 5 -20 10 0 16 357 13 364 -2 5 -11 7 -11 12 0 3 6 14 12 25 12 10 0
19 5 19 10 0 15 57 12 63 -2 4 -10 8 -9 16 2 8 12 13 11 29 -8 24 -28 52 -29
52 -2 0 18 7 20 60 20 54 0 79 -12 48 -22 -9 -3 -8 -9 4 -21 18 -19 128 -25
128 -7 0 6 -27 10 -60 10 -33 0 -60 3 -60 6 0 14 29 32 56 35 16 2 34 7 41 12
7 5 20 4 32 -3 16 -8 21 -8 21 2 0 9 3 9 12 0 18 -18 65 -15 77 6 6 9 11 12
11 6 0 -7 15 -10 41 -7 35 4 41 2 46 -16 3 -12 9 -21 14 -21 13 0 11 14 -3 29
-11 12 -10 13 6 7 17 -6 17 -5 5 10 -12 15 -11 16 10 9 18 -5 22 -4 16 6 -5 8
-5 11 0 7 10 -9 35 16 35 36 0 9 5 16 11 16 5 0 8 -3 6 -8 -3 -4 5 -7 16 -7
18 0 22 6 23 34 1 20 -2 28 -7 20 -4 -7 -6 -16 -3 -20 6 -11 -14 -21 -27 -14
-7 5 -4 14 7 26 9 10 12 19 6 19 -9 0 -9 22 -1 40 1 3 3 10 4 15 2 6 4 433 5
950 1 535 5 931 10 920 7 -16 9 -17 9 -3 1 9 -7 23 -16 30 -23 17 -26 48 -4
41 9 -3 3 4 -14 16 -29 20 -53 71 -33 71 5 0 3 7 -6 15 -16 17 -36 20 -36 6 0
-5 7 -14 15 -21 8 -7 12 -17 9 -22 -3 -5 -13 0 -21 11 -8 12 -23 21 -34 21
-10 0 -19 3 -19 6 0 11 29 34 44 34 9 0 16 5 16 10 0 17 25 11 39 -9 13 -18
15 -17 47 15 19 18 34 36 34 39 0 12 -17 4 -30 -15z m-2015 -100 c3 -5 1 -10
-4 -10 -6 0 -11 5 -11 10 0 6 2 10 4 10 3 0 8 -4 11 -10z m1240 0 c3 -5 1 -10
-4 -10 -6 0 -11 5 -11 10 0 6 2 10 4 10 3 0 8 -4 11 -10z m634 -31 c12 -13 22
-42 26 -73 3 -28 5 -478 3 -1001 -3 -937 -3 -950 -23 -985 -41 -68 -3 -65
-925 -89 -459 -12 -882 -22 -939 -24 l-105 -2 -23 34 -23 34 0 984 c0 890 2
987 16 1016 19 36 32 50 59 64 20 11 286 21 1150 43 226 6 439 12 475 13 36 2
115 4 177 5 103 2 114 0 132 -19z m-1969 -14 c0 -8 -4 -15 -10 -15 -5 0 -10 7
-10 15 0 8 5 15 10 15 6 0 10 -7 10 -15z m2037 -37 c1 -10 -1 -18 -3 -18 -9 0
-30 24 -36 41 -5 14 -3 15 16 6 12 -6 23 -19 23 -29z m23 -998 c0 -933 0 -940
-20 -940 -20 0 -20 7 -20 940 0 933 0 940 20 940 20 0 20 -7 20 -940z m-4
-971 c9 -15 -26 -89 -43 -89 -7 0 -13 -4 -13 -10 0 -5 -13 -10 -30 -10 -38 0
-38 12 0 44 17 14 30 29 29 33 -5 29 3 43 25 43 14 0 28 -5 32 -11z"/>
<path d="M5005 2534 c-164 -19 -266 -43 -353 -80 -61 -27 -88 -72 -77 -128 7
-31 19 -44 89 -100 65 -51 73 -81 86 -301 12 -216 -4 -701 -25 -752 -8 -20
-38 -57 -65 -82 -124 -113 -67 -206 155 -252 197 -42 614 8 700 83 36 31 49
80 35 124 -9 25 -27 45 -67 71 -30 20 -61 49 -68 63 -26 50 -38 265 -33 607 6
375 10 400 80 456 22 18 52 42 66 54 23 18 27 29 26 69 -1 42 -5 52 -37 79
-79 68 -322 111 -512 89z m255 -64 c0 -4 6 -10 14 -13 8 -3 13 1 12 11 -1 18
0 18 52 8 25 -4 31 -3 26 7 -4 6 2 4 13 -5 11 -10 25 -18 32 -18 7 0 9 -5 5
-11 -3 -6 6 -3 22 7 15 11 25 13 20 6 -5 -8 1 -15 15 -20 17 -7 19 -11 9 -17
-9 -5 -15 -4 -18 3 -2 7 -9 9 -14 6 -7 -5 -8 -2 -3 6 6 9 4 11 -4 5 -9 -5 -7
-13 9 -27 18 -17 24 -18 32 -7 7 11 11 11 15 2 2 -7 10 -13 16 -13 7 0 13 -11
13 -25 1 -15 -2 -22 -9 -18 -7 4 -8 0 -4 -12 9 -22 -9 -46 -29 -38 -12 4 -12
8 -2 21 9 11 9 14 1 9 -7 -4 -16 0 -22 10 -5 10 -13 14 -17 10 -5 -5 -4 -11 1
-15 10 -7 35 -48 35 -57 0 -3 -9 -5 -21 -5 -11 0 -17 -4 -14 -10 3 -5 1 -10
-5 -10 -15 0 -41 -26 -33 -34 4 -3 0 -6 -9 -6 -8 0 -15 -6 -16 -12 -3 -42 -7
-58 -14 -58 -4 0 -5 -7 -2 -15 4 -10 0 -15 -14 -15 -20 0 -32 -18 -32 -46 0
-8 5 -14 10 -14 6 0 10 9 10 20 0 11 5 20 11 20 7 0 8 -34 4 -107 -7 -137 -7
-379 1 -555 5 -101 4 -138 -5 -138 -6 0 -11 9 -11 20 0 11 -4 20 -10 20 -5 0
-10 -13 -10 -30 0 -23 5 -30 19 -30 12 0 20 -9 23 -23 4 -20 1 -23 -19 -19
-21 4 -23 1 -23 -37 0 -22 5 -41 10 -41 6 0 10 14 10 31 0 17 5 29 11 27 6 -2
10 -7 9 -12 -1 -5 6 -14 16 -19 16 -9 16 -11 -1 -23 -10 -8 -15 -17 -10 -21 4
-5 10 -2 12 5 10 26 25 11 19 -19 -4 -23 -3 -30 7 -26 19 7 77 -19 77 -35 0
-9 3 -9 10 2 8 12 10 11 10 -7 0 -13 4 -23 10 -23 8 0 8 -30 1 -94 -1 -4 -13
-5 -28 -1 -24 6 -25 4 -13 -10 7 -9 9 -15 4 -14 -32 6 -164 -3 -164 -11 0 -5
7 -10 17 -10 9 0 13 -3 9 -7 -10 -11 -36 -12 -36 -2 0 4 -7 6 -15 3 -8 -4 -12
-11 -8 -17 3 -6 1 -7 -6 -3 -6 4 -19 2 -28 -5 -13 -11 -18 -10 -32 7 -16 20
-71 27 -87 11 -5 -5 4 -6 19 -3 18 3 27 0 27 -8 0 -9 -25 -12 -95 -12 -52 1
-95 4 -95 9 0 4 -5 7 -11 7 -5 0 -8 -4 -5 -8 3 -4 -20 -8 -51 -8 -34 1 -58 6
-60 13 -3 8 4 10 21 7 14 -2 26 0 26 5 0 11 -86 9 -97 -3 -5 -4 -3 -7 2 -6 20
4 35 0 35 -11 0 -6 -5 -7 -12 -2 -15 9 -35 13 -65 15 -13 0 -20 4 -17 9 3 5 0
9 -6 9 -7 0 -9 8 -5 20 4 11 2 20 -4 20 -6 0 -11 -4 -11 -10 0 -18 -17 -10
-27 13 -8 17 -7 28 3 41 7 11 11 22 9 26 -3 4 3 14 12 21 9 8 14 10 11 4 -3
-5 0 -15 7 -22 10 -9 17 -8 31 8 18 20 6 27 -14 7 -7 -7 -12 -9 -12 -4 0 4 7
14 15 23 8 8 13 19 10 24 -4 5 1 6 9 3 21 -8 20 -43 -1 -66 -9 -10 -12 -18 -6
-18 5 0 15 10 22 23 14 26 11 78 -4 70 -5 -3 -4 0 3 8 6 7 12 21 12 31 0 10 5
18 10 18 6 0 10 9 10 20 0 11 4 20 8 20 5 0 9 44 8 98 0 57 4 96 10 95 5 -1 8
17 6 40 -8 91 -2 390 8 402 8 10 7 15 -1 21 -8 5 -9 3 -4 -6 5 -8 4 -11 -2 -7
-6 4 -11 50 -12 104 -1 53 -7 103 -13 110 -7 9 -7 13 1 13 8 0 9 5 1 19 -14
26 -13 31 5 25 8 -4 15 -13 15 -21 0 -8 5 -11 10 -8 6 3 10 -1 10 -10 0 -9 -4
-13 -10 -10 -11 7 -14 -8 -4 -18 12 -11 13 -71 2 -84 -12 -15 -2 -63 13 -63 7
0 10 14 7 34 -3 24 0 32 9 29 17 -7 16 5 -2 23 -10 11 -13 29 -9 73 6 56 5 60
-18 63 -13 2 -22 9 -20 17 2 9 -3 11 -13 7 -10 -4 -14 -2 -9 5 4 6 0 16 -7 21
-10 7 -7 8 11 4 14 -3 19 -3 12 0 -6 3 -9 10 -6 16 3 5 0 9 -7 7 -33 -4 -42 1
-30 15 10 12 8 13 -8 9 -16 -4 -21 -1 -21 13 0 9 -3 15 -6 11 -10 -9 -34 19
-34 40 0 15 -2 16 -11 3 -9 -12 -10 -11 -6 6 3 15 0 21 -12 20 -11 -1 -15 6
-14 22 2 13 -1 21 -7 17 -6 -3 -10 1 -10 10 0 11 5 15 16 11 8 -3 12 -2 9 4
-10 16 21 40 49 40 17 0 26 6 26 16 0 8 5 12 10 9 6 -3 10 -15 10 -26 0 -10 5
-19 10 -19 6 0 10 9 10 20 0 11 -4 20 -10 20 -5 0 -10 5 -10 10 0 6 20 9 45 8
24 0 42 -4 40 -8 -2 -4 2 -7 10 -7 8 0 15 4 15 9 0 4 -4 8 -10 8 -5 0 -10 5
-10 10 0 6 15 10 33 9 17 -1 45 3 60 10 16 6 42 9 58 6 17 -3 36 -2 44 2 18
10 195 4 195 -7z m-63 -1605 c0 -8 -4 -15 -9 -15 -4 0 -8 7 -8 15 0 8 4 15 8
15 5 0 9 -7 9 -15z"/>
<path d="M4994 2445 c-4 -8 -11 -12 -17 -8 -6 3 -7 1 -3 -5 10 -16 14 -15 26
8 6 11 8 20 5 20 -3 0 -8 -7 -11 -15z"/>
<path d="M5300 2450 c0 -15 28 -31 35 -20 3 5 20 10 37 10 17 0 28 3 25 7 -10
9 -97 12 -97 3z m40 -4 c0 -3 -4 -8 -10 -11 -5 -3 -10 -1 -10 4 0 6 5 11 10
11 6 0 10 -2 10 -4z"/>
<path d="M5070 2443 c0 -19 18 -25 37 -13 17 11 16 11 -1 5 -11 -3 -23 0 -28
7 -5 9 -8 10 -8 1z"/>
<path d="M4906 2431 c-3 -5 5 -8 18 -7 13 0 22 4 19 9 -6 10 -31 9 -37 -2z"/>
<path d="M4710 2387 c0 -2 8 -13 18 -25 9 -11 23 -29 31 -40 12 -17 16 -18 28
-7 17 18 17 25 -2 25 -9 0 -27 11 -41 25 -23 23 -34 30 -34 22z"/>
<path d="M4698 2357 c-6 -16 1 -37 13 -37 12 0 12 37 0 44 -5 3 -11 0 -13 -7z"/>
<path d="M4760 2270 c0 -5 5 -10 10 -10 6 0 10 5 10 10 0 6 -4 10 -10 10 -5 0
-10 -4 -10 -10z"/>
<path d="M4740 2250 c0 -5 7 -10 16 -10 8 0 12 5 9 10 -3 6 -10 10 -16 10 -5
0 -9 -4 -9 -10z"/>
<path d="M4785 2251 c-3 -5 -2 -12 3 -15 5 -3 9 1 9 9 0 17 -3 19 -12 6z"/>
<path d="M4820 2240 c0 -13 7 -20 20 -20 13 0 20 7 20 20 0 13 -7 20 -20 20
-13 0 -20 -7 -20 -20z"/>
<path d="M5280 2250 c0 -5 5 -10 10 -10 6 0 10 5 10 10 0 6 -4 10 -10 10 -5 0
-10 -4 -10 -10z"/>
<path d="M5350 2243 c0 -10 5 -25 11 -33 9 -13 10 -13 6 0 -2 8 6 22 17 32 12
10 16 17 9 18 -7 0 -13 -4 -13 -10 0 -5 -5 -10 -11 -10 -5 0 -7 5 -4 10 3 6 1
10 -4 10 -6 0 -11 -8 -11 -17z"/>
<path d="M5300 2194 c0 -7 27 -34 34 -34 3 0 6 9 6 20 0 13 -7 20 -20 20 -11
0 -20 -3 -20 -6z"/>
<path d="M4896 2164 c-9 -24 -7 -27 9 -10 17 17 19 26 6 26 -5 0 -12 -7 -15
-16z"/>
<path d="M4900 2070 c0 -16 5 -30 10 -30 6 0 10 14 10 30 0 17 -4 30 -10 30
-5 0 -10 -13 -10 -30z"/>
<path d="M5280 2090 c0 -5 5 -10 10 -10 6 0 10 5 10 10 0 6 -4 10 -10 10 -5 0
-10 -4 -10 -10z"/>
<path d="M5320 2030 c0 -5 5 -10 10 -10 6 0 10 5 10 10 0 6 -4 10 -10 10 -5 0
-10 -4 -10 -10z"/>
<path d="M4940 2010 c0 -5 5 -10 10 -10 6 0 10 5 10 10 0 6 -4 10 -10 10 -5 0
-10 -4 -10 -10z"/>
<path d="M5300 1960 c0 -11 5 -20 10 -20 6 0 10 9 10 20 0 11 -4 20 -10 20 -5
0 -10 -9 -10 -20z"/>
<path d="M4940 1930 c0 -5 5 -10 10 -10 6 0 10 5 10 10 0 6 -4 10 -10 10 -5 0
-10 -4 -10 -10z"/>
<path d="M5307 1843 c8 -52 13 -54 13 -5 0 23 -4 42 -9 42 -6 0 -7 -17 -4 -37z"/>
<path d="M4914 1824 c3 -9 6 -22 6 -30 0 -8 5 -14 10 -14 6 0 10 14 10 30 0
21 -5 30 -16 30 -11 0 -14 -5 -10 -16z"/>
<path d="M4856 1611 c-4 -5 -2 -12 4 -16 5 -3 10 -11 10 -16 0 -6 -4 -8 -9 -5
-5 4 -8 -2 -7 -11 2 -9 8 -19 15 -21 8 -3 11 8 9 33 -2 37 -12 53 -22 36z"/>
<path d="M4860 1480 c0 -11 5 -20 10 -20 6 0 10 9 10 20 0 11 -4 20 -10 20 -5
0 -10 -9 -10 -20z"/>
<path d="M4890 1450 c0 -5 7 -10 15 -10 8 0 15 5 15 10 0 6 -7 10 -15 10 -8 0
-15 -4 -15 -10z"/>
<path d="M5300 1440 c0 -11 5 -20 10 -20 6 0 10 9 10 20 0 11 -4 20 -10 20 -5
0 -10 -9 -10 -20z"/>
<path d="M5300 1390 c0 -5 5 -10 10 -10 6 0 10 5 10 10 0 6 -4 10 -10 10 -5 0
-10 -4 -10 -10z"/>
<path d="M4856 1353 c17 -12 13 -17 -11 -14 -5 1 -1 -5 9 -14 17 -13 18 -15 2
-21 -13 -5 -14 -9 -4 -21 14 -17 18 -65 6 -74 -5 -3 -2 -20 6 -39 13 -31 13
-25 12 81 -1 104 -3 115 -19 115 -17 0 -17 -1 -1 -13z"/>
<path d="M4920 1330 c0 -16 5 -30 10 -30 6 0 10 14 10 30 0 17 -4 30 -10 30
-5 0 -10 -13 -10 -30z"/>
<path d="M5280 1260 c0 -24 15 -27 24 -4 9 22 8 24 -9 24 -8 0 -15 -9 -15 -20z"/>
<path d="M4940 1230 c0 -5 5 -10 10 -10 6 0 10 5 10 10 0 6 -4 10 -10 10 -5 0
-10 -4 -10 -10z"/>
<path d="M5280 1210 c0 -5 5 -10 10 -10 6 0 10 5 10 10 0 6 -4 10 -10 10 -5 0
-10 -4 -10 -10z"/>
<path d="M5280 1150 c0 -5 5 -10 10 -10 6 0 10 5 10 10 0 6 -4 10 -10 10 -5 0
-10 -4 -10 -10z"/>
<path d="M5310 1100 c0 -25 45 -28 54 -4 3 8 2 12 -4 9 -6 -3 -10 -1 -10 4 0
6 -9 11 -20 11 -13 0 -20 -7 -20 -20z"/>
<path d="M5447 1075 c3 -8 9 -12 14 -9 12 7 11 11 -5 17 -10 4 -13 1 -9 -8z"/>
<path d="M5388 1069 c-26 -14 -22 -29 7 -29 14 0 25 5 25 10 0 6 -5 10 -11 10
-5 0 -7 5 -4 10 8 12 5 12 -17 -1z"/>
<path d="M5280 1030 c0 -5 7 -10 15 -10 8 0 15 5 15 10 0 6 -7 10 -15 10 -8 0
-15 -4 -15 -10z"/>
<path d="M5440 990 c0 -5 5 -10 10 -10 6 0 10 5 10 10 0 6 -4 10 -10 10 -5 0
-10 -4 -10 -10z"/>
<path d="M4706 975 c-11 -8 -16 -15 -10 -15 5 0 18 7 28 15 11 8 16 15 10 15
-5 0 -18 -7 -28 -15z"/>
<path d="M4760 941 c0 -22 5 -43 10 -46 6 -3 10 0 10 9 0 8 6 17 13 20 10 5
10 7 0 12 -7 3 -13 14 -13 25 0 10 -4 19 -10 19 -5 0 -10 -18 -10 -39z"/>
<path d="M4940 970 c0 -5 5 -10 10 -10 6 0 10 5 10 10 0 6 -4 10 -10 10 -5 0
-10 -4 -10 -10z"/>
<path d="M5465 971 c-3 -5 2 -11 10 -15 8 -3 17 -1 20 3 3 5 -2 11 -10 15 -8
3 -17 1 -20 -3z"/>
<path d="M5290 950 c0 -5 20 -10 45 -10 25 0 45 5 45 10 0 6 -20 10 -45 10
-25 0 -45 -4 -45 -10z"/>
<path d="M5400 950 c0 -5 9 -10 19 -10 11 0 23 5 26 10 4 6 -5 10 -19 10 -14
0 -26 -4 -26 -10z"/>
<path d="M4960 930 c0 -5 -11 -10 -25 -10 -14 0 -25 -4 -25 -10 0 -5 11 -10
25 -10 14 0 25 5 25 10 0 6 7 10 15 10 8 0 15 5 15 10 0 6 -7 10 -15 10 -8 0
-15 -4 -15 -10z"/>
<path d="M5254 924 c3 -9 6 -18 6 -20 0 -2 5 -4 10 -4 6 0 10 9 10 20 0 12 -7
20 -16 20 -11 0 -14 -5 -10 -16z"/>
<path d="M5000 886 c4 -4 16 -4 26 2 16 9 14 10 -8 9 -15 -1 -23 -6 -18 -11z"/>
<path d="M3897 2872 c-21 -48 -21 -48 1 -48 13 0 17 9 18 43 1 24 0 43 -1 43
0 0 -9 -17 -18 -38z"/>
<path d="M4250 2890 c0 -5 11 -10 25 -10 14 0 25 5 25 10 0 6 -11 10 -25 10
-14 0 -25 -4 -25 -10z"/>
<path d="M3940 2860 c0 -16 7 -20 30 -20 34 0 37 5 16 26 -21 21 -46 17 -46
-6z"/>
<path d="M4600 2870 c0 -5 18 -10 40 -10 22 0 40 5 40 10 0 6 -18 10 -40 10
-22 0 -40 -4 -40 -10z"/>
<path d="M4700 2870 c0 -5 9 -10 20 -10 11 0 20 5 20 10 0 6 -9 10 -20 10 -11
0 -20 -4 -20 -10z"/>
<path d="M4800 2870 c0 -5 5 -10 10 -10 6 0 10 5 10 10 0 6 -4 10 -10 10 -5 0
-10 -4 -10 -10z"/>
<path d="M5780 2870 c0 -5 18 -10 40 -10 22 0 40 5 40 10 0 6 -18 10 -40 10
-22 0 -40 -4 -40 -10z"/>
<path d="M5920 2870 c0 -5 9 -10 20 -10 11 0 20 5 20 10 0 6 -9 10 -20 10 -11
0 -20 -4 -20 -10z"/>
<path d="M6000 2870 c0 -5 9 -10 20 -10 11 0 20 5 20 10 0 6 -9 10 -20 10 -11
0 -20 -4 -20 -10z"/>
<path d="M4520 2850 c0 -5 5 -10 10 -10 6 0 10 5 10 10 0 6 -4 10 -10 10 -5 0
-10 -4 -10 -10z"/>
<path d="M4920 2850 c0 -5 9 -10 20 -10 11 0 20 5 20 10 0 6 -9 10 -20 10 -11
0 -20 -4 -20 -10z"/>
<path d="M5580 2850 c0 -5 5 -10 10 -10 6 0 10 5 10 10 0 6 -4 10 -10 10 -5 0
-10 -4 -10 -10z"/>
<path d="M5700 2850 c0 -5 14 -10 30 -10 17 0 30 5 30 10 0 6 -13 10 -30 10
-16 0 -30 -4 -30 -10z"/>
<path d="M4260 2830 c0 -5 6 -10 14 -10 8 0 16 -7 20 -15 9 -24 26 -17 26 10
0 21 -5 25 -30 25 -16 0 -30 -4 -30 -10z"/>
<path d="M4440 2830 c0 -5 5 -10 10 -10 6 0 10 5 10 10 0 6 -4 10 -10 10 -5 0
-10 -4 -10 -10z"/>
<path d="M4580 2830 c0 -5 14 -10 30 -10 17 0 30 -4 30 -10 0 -5 21 -10 46
-10 27 0 43 4 39 10 -3 6 -24 10 -46 10 -21 0 -39 5 -39 10 0 6 -13 10 -30 10
-16 0 -30 -4 -30 -10z"/>
<path d="M6202 2824 c-7 -8 -8 -14 -3 -14 10 0 25 19 20 25 -2 1 -10 -3 -17
-11z"/>
<path d="M3862 2800 c0 -14 2 -19 5 -12 2 6 2 18 0 25 -3 6 -5 1 -5 -13z"/>
<path d="M4083 2805 c-3 -9 -3 -19 1 -22 3 -4 6 1 6 10 0 8 6 18 13 20 9 4 9
6 -1 6 -7 1 -15 -6 -19 -14z"/>
<path d="M4346 2812 c-3 -5 1 -9 9 -9 8 0 12 4 9 9 -3 4 -7 8 -9 8 -2 0 -6 -4
-9 -8z"/>
<path d="M6220 2800 c0 -8 5 -22 10 -30 9 -13 10 -13 10 0 0 8 -5 22 -10 30
-9 13 -10 13 -10 0z"/>
<path d="M3920 2780 c0 -11 5 -20 10 -20 6 0 10 9 10 20 0 11 -4 20 -10 20 -5
0 -10 -9 -10 -20z"/>
<path d="M4050 2729 c0 -5 5 -7 10 -4 6 3 10 8 10 11 0 2 -4 4 -10 4 -5 0 -10
-5 -10 -11z"/>
<path d="M4000 2699 c0 -11 5 -17 10 -14 6 3 10 13 10 21 0 8 -4 14 -10 14 -5
0 -10 -9 -10 -21z"/>
<path d="M3865 1620 c0 -575 1 -810 2 -522 2 287 2 757 0 1045 -1 287 -2 52
-2 -523z"/>
<path d="M3905 1620 c0 -575 1 -810 2 -522 2 287 2 757 0 1045 -1 287 -2 52
-2 -523z"/>
<path d="M4013 1625 c-2 -554 1 -966 6 -974 6 -9 4 -23 -6 -40 -15 -24 -14
-24 10 3 29 31 34 47 15 44 -10 -2 -14 197 -18 962 l-5 965 -2 -960z"/>
<path d="M6153 606 c-13 -15 -7 -26 14 -26 7 0 13 9 13 20 0 23 -10 25 -27 6z"/>
<path d="M6200 610 c0 -5 9 -10 20 -10 11 0 20 5 20 10 0 6 -9 10 -20 10 -11
0 -20 -4 -20 -10z"/>
<path d="M4040 601 c0 -5 5 -13 10 -16 6 -4 8 -16 4 -28 -6 -20 -6 -20 10 -4
10 9 23 15 29 11 7 -3 3 1 -8 10 -11 8 -26 20 -32 26 -8 7 -13 7 -13 1z"/>
<path d="M4000 570 c0 -5 5 -10 10 -10 6 0 10 5 10 10 0 6 -4 10 -10 10 -5 0
-10 -4 -10 -10z"/>
<path d="M6030 570 c0 -5 11 -10 25 -10 14 0 25 5 25 10 0 6 -11 10 -25 10
-14 0 -25 -4 -25 -10z"/>
<path d="M5920 550 c0 -5 9 -10 20 -10 11 0 20 5 20 10 0 6 -9 10 -20 10 -11
0 -20 -4 -20 -10z"/>
<path d="M6200 550 c0 -5 5 -10 10 -10 6 0 10 5 10 10 0 6 -4 10 -10 10 -5 0
-10 -4 -10 -10z"/>
<path d="M4893 533 c9 -2 23 -2 30 0 6 3 -1 5 -18 5 -16 0 -22 -2 -12 -5z"/>
<path d="M5120 530 c0 -6 27 -10 60 -10 33 0 60 4 60 10 0 6 -27 10 -60 10
-33 0 -60 -4 -60 -10z"/>
<path d="M6100 530 c0 -5 9 -10 20 -10 11 0 20 5 20 10 0 6 -9 10 -20 10 -11
0 -20 -4 -20 -10z"/>
<path d="M4000 510 c0 -5 -7 -10 -15 -10 -9 0 -15 -9 -15 -22 l0 -21 19 21
c10 12 26 22 35 22 9 0 16 5 16 10 0 6 -9 10 -20 10 -11 0 -20 -4 -20 -10z"/>
<path d="M5500 510 c0 -5 14 -10 30 -10 17 0 30 5 30 10 0 6 -13 10 -30 10
-16 0 -30 -4 -30 -10z"/>
<path d="M5720 510 c0 -5 5 -10 10 -10 6 0 10 5 10 10 0 6 -4 10 -10 10 -5 0
-10 -4 -10 -10z"/>
<path d="M6020 510 c0 -5 5 -10 10 -10 6 0 10 5 10 10 0 6 -4 10 -10 10 -5 0
-10 -4 -10 -10z"/>
<path d="M6220 510 c0 -5 5 -10 10 -10 6 0 10 5 10 10 0 6 -4 10 -10 10 -5 0
-10 -4 -10 -10z"/>
<path d="M6080 490 c0 -5 5 -10 10 -10 6 0 10 5 10 10 0 6 -4 10 -10 10 -5 0
-10 -4 -10 -10z"/>
<path d="M6290 490 c0 -5 7 -10 15 -10 8 0 15 5 15 10 0 6 -7 10 -15 10 -8 0
-15 -4 -15 -10z"/>
<path d="M3920 463 c0 -13 5 -23 10 -23 13 0 13 11 0 30 -8 12 -10 11 -10 -7z"/>
<path d="M3940 470 c0 -5 5 -10 10 -10 6 0 10 5 10 10 0 6 -4 10 -10 10 -5 0
-10 -4 -10 -10z"/>
<path d="M5500 470 c0 -5 5 -10 10 -10 6 0 10 5 10 10 0 6 -4 10 -10 10 -5 0
-10 -4 -10 -10z"/>
<path d="M6355 470 c-3 -6 1 -7 9 -4 18 7 21 14 7 14 -6 0 -13 -4 -16 -10z"/>
<path d="M3905 420 c2 -27 10 -33 12 -10 1 11 -2 22 -6 24 -4 3 -7 -4 -6 -14z"/>
<path d="M3971 424 c-18 -21 -6 -30 14 -11 8 9 15 18 15 21 0 11 -15 5 -29
-10z"/>
<path d="M5960 430 c0 -5 5 -10 10 -10 6 0 10 5 10 10 0 6 -4 10 -10 10 -5 0
-10 -4 -10 -10z"/>
<path d="M6230 431 c0 -5 7 -11 15 -15 9 -3 15 0 15 9 0 8 -7 15 -15 15 -8 0
-15 -4 -15 -9z"/>
<path d="M5450 410 c-11 -7 -3 -10 30 -10 33 0 41 3 30 10 -8 5 -22 10 -30 10
-8 0 -22 -5 -30 -10z"/>
<path d="M5600 410 c0 -5 9 -10 20 -10 11 0 20 5 20 10 0 6 -9 10 -20 10 -11
0 -20 -4 -20 -10z"/>
<path d="M5696 404 c-4 -9 -4 -19 -1 -22 3 -3 5 0 5 6 0 7 7 12 16 12 8 0 12
5 9 10 -9 15 -22 12 -29 -6z"/>
<path d="M5742 395 c-1 -14 2 -25 6 -25 5 0 8 9 7 20 -2 29 -10 33 -13 5z"/>
<path d="M5238 403 c23 -2 61 -2 85 0 23 2 4 4 -43 4 -47 0 -66 -2 -42 -4z"/>
<path d="M5970 395 c14 -17 50 -20 50 -4 0 6 -7 9 -15 6 -8 -4 -17 -2 -20 3
-4 6 -11 10 -17 10 -7 0 -6 -6 2 -15z"/>
<path d="M5920 392 c0 -4 10 -9 22 -9 18 -2 20 0 8 7 -18 12 -30 13 -30 2z"/>
<path d="M5710 379 c0 -5 5 -7 10 -4 6 3 10 8 10 11 0 2 -4 4 -10 4 -5 0 -10
-5 -10 -11z"/>
<path d="M5238 373 c23 -2 61 -2 85 0 23 2 4 4 -43 4 -47 0 -66 -2 -42 -4z"/>
<path d="M3960 344 c0 -8 5 -12 10 -9 6 3 10 10 10 16 0 5 -4 9 -10 9 -5 0
-10 -7 -10 -16z"/>
<path d="M3268 2735 c-3 -3 -192 -10 -419 -16 -228 -5 -580 -14 -784 -19 -564
-13 -572 -14 -621 -92 l-24 -38 0 -987 c0 -921 1 -990 18 -1022 22 -45 58 -70
102 -74 19 -1 143 1 275 6 330 10 875 26 1140 32 331 7 477 15 510 28 39 14
62 41 75 86 6 23 10 389 10 1005 0 949 0 971 -20 1011 -30 62 -78 85 -177 85
-44 0 -82 -2 -85 -5z m184 -55 c17 -33 18 -102 18 -1013 0 -1052 2 -1016 -51
-1063 -13 -12 -37 -25 -54 -28 -16 -3 -446 -17 -955 -31 l-925 -26 -22 28
c-13 16 -25 48 -28 78 -3 27 -5 478 -3 1000 l3 950 22 31 c45 63 13 60 903 83
448 12 838 23 865 25 28 1 86 2 130 2 l80 -1 17 -35z m72 -41 c-5 -9 -44 1
-44 10 0 4 5 12 12 19 9 9 14 7 24 -6 7 -9 10 -20 8 -23z m-14 -49 c0 -5 7
-10 15 -10 13 0 15 -112 15 -947 0 -522 -4 -943 -8 -938 -4 6 -13 10 -19 11
-7 1 -17 2 -23 3 -16 2 -14 1668 3 1675 10 5 10 7 0 12 -9 4 -13 35 -13 105 0
81 3 99 15 99 8 0 15 -4 15 -10z m30 -1920 c0 -5 -5 -10 -11 -10 -6 0 -8 -8
-5 -18 9 -27 -54 -82 -94 -82 -16 0 -30 5 -30 10 0 6 5 10 11 10 14 0 34 24
55 68 13 25 23 32 45 32 16 0 29 -4 29 -10z"/>
<path d="M2895 2480 c-73 -8 -90 -12 -141 -37 -35 -18 -67 -57 -36 -46 9 4 23
15 30 25 7 10 26 18 42 18 15 0 30 6 33 13 2 6 7 9 11 6 10 -10 -5 -39 -20
-39 -8 0 -14 -4 -14 -10 0 -5 -9 -10 -19 -10 -15 0 -19 -7 -19 -30 1 -17 -4
-36 -10 -42 -15 -15 -16 -48 -2 -48 6 0 10 -4 10 -10 0 -18 -29 -10 -35 10 -3
11 -10 20 -15 20 -5 0 -11 6 -13 13 -2 6 -3 -1 -1 -18 4 -30 42 -71 96 -103
44 -26 58 -76 59 -222 0 -56 3 -99 6 -96 3 3 5 63 4 133 -1 124 7 171 24 143
5 -7 10 -29 12 -49 2 -20 8 -37 13 -39 13 -5 13 -199 1 -206 -5 -3 -7 -16 -3
-28 4 -15 2 -19 -8 -13 -7 4 -16 2 -20 -5 -12 -19 -38 9 -33 35 3 17 2 17 -6
-2 -14 -31 -40 -29 -76 5 -16 15 -59 52 -94 82 -36 30 -81 70 -100 88 -20 19
-56 50 -81 70 -25 20 -52 44 -60 52 -13 13 -75 67 -190 167 -71 61 -85 72
-109 85 -14 7 -28 15 -31 19 -14 15 -82 33 -170 44 -73 10 -292 -12 -352 -35
-71 -26 -120 -76 -121 -123 -1 -53 19 -82 90 -128 94 -61 107 -105 124 -402 9
-165 -1 -536 -16 -615 l-5 -27 12 25 c7 15 15 95 19 195 4 94 10 207 14 253 6
59 5 82 -4 82 -8 0 -11 44 -11 150 0 93 -4 150 -10 150 -5 0 -10 22 -10 49 0
30 -5 51 -12 54 -7 2 -10 8 -5 12 4 5 18 -2 32 -15 18 -17 25 -34 25 -62 0
-21 5 -38 10 -38 6 0 10 -32 10 -75 0 -46 4 -75 11 -75 19 0 1 -674 -20 -747
-1 -2 -8 -3 -16 -3 -8 0 -15 -7 -15 -16 0 -19 -48 -64 -67 -64 -7 0 -13 -4
-13 -10 0 -5 -9 -10 -20 -10 -27 0 -25 7 8 39 15 14 33 37 41 51 9 16 -4 9
-45 -25 -33 -27 -61 -50 -63 -52 -8 -5 29 -33 43 -33 9 0 16 -8 16 -20 0 -36
-59 -15 -61 22 0 7 -4 3 -9 -9 -14 -35 14 -105 53 -128 108 -66 261 -93 419
-76 95 11 155 26 173 44 7 6 0 7 -20 3 -145 -32 -185 -37 -274 -33 -53 3 -112
8 -130 12 -45 10 -112 46 -121 65 -32 65 -32 67 -17 96 8 16 38 49 66 72 83
71 86 85 86 532 0 499 -7 533 -124 615 -101 71 -113 127 -42 186 65 55 158 74
366 74 108 0 112 -1 162 -33 63 -40 113 -80 173 -135 25 -23 61 -55 80 -71 19
-16 58 -49 86 -75 28 -25 79 -71 114 -101 35 -30 73 -63 84 -73 57 -50 121
-103 140 -116 12 -8 23 -18 26 -22 3 -3 19 -9 36 -13 23 -5 37 -2 55 13 23 19
24 23 24 168 0 143 -1 151 -25 186 -14 20 -27 37 -30 37 -3 0 -21 14 -40 30
-19 16 -38 30 -42 30 -4 0 -12 16 -17 36 -18 65 19 119 107 154 23 9 93 13
230 14 189 1 199 0 237 -22 52 -31 75 -60 75 -97 0 -43 -31 -87 -83 -120 -24
-16 -50 -37 -56 -47 -29 -47 -34 -128 -42 -628 -8 -552 -14 -632 -56 -697 -26
-39 -110 -50 -155 -19 -34 24 -210 178 -258 226 -8 9 -31 28 -50 44 -19 15
-60 51 -90 80 -30 28 -93 84 -140 125 -47 41 -92 81 -100 90 -23 25 -131 115
-169 141 -39 27 -87 29 -106 3 -34 -47 -48 -302 -21 -393 24 -81 27 -86 54
-103 105 -62 120 -116 55 -189 -23 -24 -30 -37 -18 -31 30 17 51 44 64 85 10
31 9 42 -5 70 -9 18 -22 36 -28 40 -40 23 -97 85 -108 116 -14 41 -18 282 -5
344 4 21 15 44 24 53 14 14 18 14 42 -1 14 -10 31 -22 37 -28 6 -6 39 -36 73
-66 35 -30 75 -66 90 -80 16 -14 61 -54 101 -90 40 -36 85 -76 100 -90 32 -29
162 -146 196 -175 12 -11 46 -41 76 -67 99 -88 113 -98 166 -118 29 -11 72
-20 96 -20 38 0 48 5 75 35 60 69 70 174 71 740 0 338 3 445 15 500 17 80 31
113 54 120 9 3 37 22 61 44 43 38 44 40 45 101 0 58 -2 64 -32 89 -17 14 -60
37 -95 50 -54 21 -82 25 -198 26 -74 2 -166 -1 -205 -5z m-1245 -70 c0 -5 -7
-10 -15 -10 -8 0 -15 -4 -15 -10 0 -19 -16 -10 -17 10 -1 15 4 20 23 20 13 0
24 -4 24 -10z m-70 -28 c0 -10 -9 -24 -20 -32 -11 -8 -20 -19 -20 -25 0 -13
-36 -45 -50 -45 -6 0 -10 14 -10 30 0 17 4 30 9 30 5 0 11 10 15 23 5 18 8 19
16 7 8 -13 12 -12 27 7 22 27 33 29 33 5z m-80 -132 c0 -5 -4 -10 -10 -10 -5
0 -10 5 -10 10 0 6 5 10 10 10 6 0 10 -4 10 -10z m78 -1373 c2 -12 -3 -17 -17
-17 -15 0 -21 6 -21 21 0 25 33 22 38 -4z"/>
<path d="M2692 2360 c0 -14 2 -19 5 -12 2 6 2 18 0 25 -3 6 -5 1 -5 -13z"/>
<path d="M1640 1110 c0 -5 5 -10 10 -10 6 0 10 5 10 10 0 6 -4 10 -10 10 -5 0
-10 -4 -10 -10z"/>
</g>
</svg>
