<?xml version="1.0" standalone="no"?>
<!DOCTYPE svg PUBLIC "-//W3C//DTD SVG 20010904//EN"
 "http://www.w3.org/TR/2001/REC-SVG-20010904/DTD/svg10.dtd">
<svg version="1.0" xmlns="http://www.w3.org/2000/svg"
 width="662.000000pt" height="653.000000pt" viewBox="0 0 662.000000 653.000000"
 preserveAspectRatio="xMidYMid meet">

<g transform="translate(0.000000,653.000000) scale(0.100000,-0.100000)"
fill="#000000" stroke="none">
<path d="M462 6341 c-80 -28 -141 -85 -181 -171 l-26 -55 0 -1315 0 -1315 33
-68 c37 -75 102 -136 169 -158 l38 -12 -45 -19 c-73 -31 -126 -82 -162 -156
l-33 -67 0 -1315 0 -1315 27 -58 c32 -68 95 -132 158 -161 45 -21 48 -21 1375
-21 l1330 0 57 28 c65 32 118 89 145 153 10 24 20 44 23 44 3 0 13 -20 23 -44
27 -64 80 -121 145 -153 l57 -28 1330 0 c1327 0 1330 0 1375 21 63 29 126 93
158 161 l27 58 0 1315 0 1315 -33 68 c-37 75 -102 136 -169 158 l-38 12 45 19
c73 31 126 82 162 156 l33 67 0 1315 0 1315 -27 58 c-32 68 -95 132 -158 161
-45 21 -48 21 -1375 21 l-1330 0 -57 -28 c-65 -32 -118 -89 -145 -153 -10 -24
-20 -44 -23 -44 -3 0 -13 20 -23 44 -27 64 -80 121 -145 153 l-57 28 -1315 2
c-1250 2 -1318 2 -1368 -16z m5743 -1 c78 -20 115 -33 115 -42 0 -4 5 -8 11
-8 20 0 76 -64 105 -120 l29 -55 0 -1316 0 -1316 -29 -54 c-50 -92 -110 -140
-212 -168 -44 -12 -2537 -17 -2581 -5 -13 4 -21 10 -18 14 3 5 -4 6 -16 3 -31
-8 -106 36 -154 91 -80 91 -75 -11 -75 1435 0 933 3 1298 11 1318 31 77 56
117 93 149 47 41 70 53 141 69 66 16 2520 20 2580 5z m-3235 -326 c19 -11 45
-35 57 -54 l23 -33 0 -1127 0 -1127 -22 -33 c-13 -18 -36 -43 -51 -54 l-28
-21 -1134 0 c-1129 0 -1134 0 -1161 21 -15 11 -37 33 -48 48 -21 27 -21 34
-24 1154 -2 1058 -1 1129 15 1161 22 41 58 70 104 81 19 5 529 7 1134 7 1090
-2 1100 -2 1135 -23z m419 -2586 c17 -55 101 -139 164 -163 l48 -18 -60 -29
c-69 -33 -135 -102 -153 -159 -6 -22 -14 -39 -18 -39 -4 0 -12 17 -18 39 -18
57 -84 126 -153 159 l-60 29 48 18 c63 24 147 108 164 163 7 23 15 42 19 42 4
0 12 -19 19 -42z m-211 -220 c62 -29 123 -87 153 -145 l24 -48 0 -1315 c0
-723 -3 -1325 -7 -1337 -22 -70 -92 -153 -154 -182 -16 -7 -37 -17 -46 -22
-23 -12 -2643 -12 -2666 0 -9 5 -30 15 -46 22 -49 23 -124 107 -145 163 -19
50 -20 78 -18 1361 l2 1310 24 45 c26 51 93 118 137 139 16 7 36 17 44 22 8 4
608 8 1333 8 l1317 1 48 -22z m2908 -304 c15 -11 37 -33 48 -48 21 -27 21 -32
21 -1166 l0 -1139 -21 -28 c-12 -15 -36 -37 -55 -48 -33 -20 -52 -20 -1154
-20 -1112 0 -1120 0 -1155 21 -19 11 -45 35 -57 54 l-23 33 0 1124 c0 1215 -3
1149 53 1201 13 13 37 27 53 32 16 5 532 8 1146 7 1111 -2 1117 -2 1144 -23z"/>
<path d="M3758 6034 c-36 -20 -66 -59 -78 -105 -7 -24 -9 -417 -8 -1151 3
-1078 4 -1114 22 -1150 11 -21 24 -38 28 -38 5 0 18 -9 30 -20 22 -20 36 -20
1171 -20 l1150 0 34 26 c18 14 42 43 53 64 19 38 20 63 20 1160 0 1213 3 1146
-53 1202 -49 50 7 48 -1204 47 -964 -1 -1142 -3 -1165 -15z m2314 -16 c35 -20
67 -55 78 -83 14 -38 14 -2234 -1 -2272 -6 -15 -26 -42 -46 -60 l-36 -33
-1140 0 -1140 0 -34 26 c-67 51 -63 -33 -63 1206 0 1102 1 1124 20 1156 11 18
34 41 52 52 32 20 53 20 1161 20 884 0 1132 -3 1149 -12z"/>
<path d="M4765 5735 c-144 -19 -254 -40 -295 -57 -62 -27 -76 -34 -95 -53 -23
-24 -28 -39 -26 -77 2 -48 4 -58 13 -58 5 0 6 -4 3 -10 -3 -5 -3 -10 2 -10 16
-1 114 -87 149 -132 12 -15 19 -40 31 -123 18 -116 6 -944 -14 -995 -3 -8 -7
-21 -9 -27 -1 -7 -22 -31 -46 -53 -23 -23 -55 -52 -69 -66 -32 -30 -40 -64
-27 -110 23 -84 109 -119 327 -133 222 -14 509 12 622 57 66 26 128 121 102
154 -6 7 -13 24 -16 38 -5 17 -30 40 -77 70 -51 33 -73 54 -84 81 -19 47 -31
292 -31 629 0 275 7 395 28 468 12 45 66 104 121 132 65 34 80 120 31 178 -45
54 -106 75 -285 97 -135 17 -218 17 -355 0z m416 -24 c133 -22 192 -52 221
-111 26 -55 14 -85 -51 -129 -73 -50 -94 -75 -116 -136 -16 -44 -19 -97 -23
-435 -4 -401 7 -640 34 -692 7 -14 42 -46 76 -70 80 -55 106 -101 85 -150 -29
-67 -92 -98 -252 -124 -154 -25 -491 -26 -589 -1 -184 46 -223 137 -101 236
30 25 62 60 71 79 26 56 37 219 38 607 1 514 -7 553 -130 655 -72 59 -80 72
-75 125 2 23 36 62 72 80 53 28 231 64 394 79 60 6 282 -3 346 -13z"/>
<path d="M955 5744 c-174 -17 -267 -75 -267 -168 0 -52 21 -80 102 -138 87
-62 108 -96 127 -208 36 -208 34 -840 -3 -965 -14 -52 -42 -84 -115 -138 -74
-55 -69 -163 11 -220 83 -59 245 -84 435 -67 161 14 261 58 284 125 28 78 11
124 -65 180 -68 50 -89 83 -103 166 -21 122 -6 337 26 386 14 21 22 24 51 19
19 -3 52 -17 72 -31 21 -14 220 -189 442 -388 511 -457 496 -445 556 -458 43
-10 54 -9 88 7 45 22 79 81 95 164 6 32 14 303 19 650 8 593 11 639 45 722 3
9 32 32 63 51 69 43 86 61 102 110 15 46 6 89 -27 128 -54 63 -169 84 -416 76
-200 -6 -256 -18 -302 -61 -71 -67 -54 -163 41 -231 31 -22 64 -52 74 -66 28
-38 44 -149 37 -256 -7 -115 -23 -148 -69 -139 -43 9 -59 21 -454 366 -199
173 -387 330 -418 349 l-57 34 -167 2 c-92 2 -185 1 -207 -1z"/>
<path d="M675 2936 c-46 -17 -91 -63 -104 -105 -16 -55 -16 -2234 1 -2282 17
-51 72 -96 132 -109 35 -7 403 -9 1141 -8 1046 3 1092 4 1128 22 21 10 50 35
65 54 l27 35 0 1146 0 1146 -27 39 c-16 21 -28 35 -28 30 0 -5 -4 -3 -9 5 -26
40 -39 41 -1191 40 -803 -1 -1113 -4 -1135 -13z m2264 -18 c33 -12 96 -58 78
-58 -4 0 2 -9 13 -20 20 -20 20 -33 20 -1148 l0 -1127 -24 -36 c-14 -20 -42
-45 -63 -55 -36 -18 -82 -19 -1118 -22 -779 -2 -1095 0 -1133 8 -57 12 -100
46 -120 93 -9 21 -12 299 -12 1136 0 1196 -2 1150 52 1196 12 11 37 25 53 31
45 18 2205 19 2254 2z"/>
<path d="M980 2639 c-148 -12 -201 -30 -260 -88 -19 -19 -34 -34 -32 -35 2 -1
0 -14 -4 -30 -4 -17 -2 -36 5 -47 6 -10 11 -25 11 -33 0 -8 21 -30 48 -47 26
-18 48 -36 50 -41 2 -4 8 -8 13 -8 29 0 83 -75 94 -130 3 -14 7 -36 10 -50 2
-14 7 -47 10 -73 2 -27 7 -53 10 -57 7 -12 8 -667 1 -679 -3 -5 -8 -40 -10
-77 -3 -38 -10 -85 -17 -104 -12 -36 -62 -89 -111 -117 -24 -15 -43 -46 -54
-93 -6 -23 18 -93 37 -110 44 -39 57 -46 99 -59 25 -7 53 -17 64 -23 24 -13
364 -12 396 0 14 6 45 16 70 23 25 7 51 19 58 26 8 7 22 18 32 23 28 15 51
100 39 143 -9 35 -32 59 -99 103 -22 15 -40 32 -40 40 0 7 -6 19 -12 26 -14
14 -14 16 -28 89 -9 49 -6 236 5 313 18 118 82 114 225 -14 15 -14 60 -54 100
-90 40 -36 85 -76 100 -90 15 -14 56 -50 90 -80 34 -30 75 -66 90 -80 15 -14
60 -54 100 -90 40 -36 85 -76 100 -90 15 -14 56 -50 90 -80 34 -30 75 -66 90
-80 15 -14 42 -36 60 -50 18 -14 39 -31 47 -38 8 -8 39 -14 77 -14 67 -1 84 7
120 63 50 78 58 188 60 836 1 355 5 524 13 538 6 11 13 38 17 60 3 22 5 40 6
41 3 8 39 44 44 44 21 0 107 70 118 95 20 46 15 117 -9 151 -20 28 -34 37 -93
62 -32 13 -190 32 -266 32 -82 0 -276 -20 -296 -31 -10 -5 -25 -9 -33 -9 -8 0
-15 -4 -15 -10 0 -5 -6 -10 -12 -10 -16 -1 -48 -43 -54 -73 -9 -37 -9 -41 4
-84 10 -33 23 -50 60 -75 111 -76 125 -106 125 -270 0 -145 -2 -161 -18 -182
-15 -20 -72 -25 -84 -9 -3 5 -22 20 -41 33 -34 24 -66 51 -120 100 -15 14 -51
45 -80 70 -29 25 -65 56 -80 70 -15 14 -51 45 -80 70 -29 25 -65 56 -80 70
-15 14 -44 40 -66 58 -40 34 -127 111 -193 169 -20 18 -42 33 -48 33 -7 0 -13
5 -13 10 0 6 -7 10 -15 10 -8 0 -15 5 -15 10 0 6 -7 10 -15 10 -8 0 -15 4 -15
9 0 20 -236 33 -380 20z m284 -18 c50 -7 82 -18 121 -43 30 -18 206 -166 392
-328 398 -348 409 -358 459 -375 45 -15 82 -3 89 29 19 77 22 130 14 233 -10
137 -21 159 -110 223 -64 47 -79 70 -79 122 0 45 28 83 79 109 98 49 495 48
598 -2 74 -36 98 -92 73 -166 -8 -21 -32 -43 -80 -74 -74 -47 -80 -57 -106
-159 -14 -55 -17 -150 -20 -625 -3 -439 -6 -578 -18 -645 -32 -181 -122 -227
-247 -127 -29 23 -236 205 -459 405 -223 200 -425 376 -449 392 -24 17 -59 33
-78 36 -29 6 -39 2 -61 -19 -22 -22 -27 -40 -36 -119 -6 -52 -8 -147 -5 -213
8 -150 23 -184 113 -255 71 -56 83 -82 65 -139 -17 -51 -63 -87 -144 -113 -96
-30 -357 -32 -450 -4 -83 26 -139 68 -154 115 -19 64 -6 90 67 146 85 64 96
93 112 289 17 196 8 662 -15 796 -24 143 -39 168 -133 234 -56 40 -83 66 -91
87 -25 72 25 136 133 171 63 21 318 32 420 19z"/>
<path d="M4825 2629 c-132 -9 -312 -43 -378 -71 -26 -11 -59 -34 -73 -51 -23
-27 -25 -38 -21 -81 4 -43 9 -53 48 -84 99 -80 126 -116 140 -183 30 -149 21
-973 -13 -1064 -6 -16 -40 -57 -75 -90 -37 -35 -67 -73 -72 -90 -21 -81 40
-141 181 -175 169 -40 586 -21 750 36 89 30 127 86 113 161 -7 39 -30 64 -114
126 -29 21 -49 45 -57 70 -21 60 -37 470 -30 742 9 353 19 393 122 460 66 43
84 68 84 116 0 65 -55 121 -145 146 -102 29 -297 43 -460 32z"/>
</g>
</svg>
