<?xml version="1.0" standalone="no"?>
<!DOCTYPE svg PUBLIC "-//W3C//DTD SVG 20010904//EN"
 "http://www.w3.org/TR/2001/REC-SVG-20010904/DTD/svg10.dtd">
<svg version="1.0" xmlns="http://www.w3.org/2000/svg"
 width="1564.000000pt" height="915.000000pt" viewBox="0 0 1564.000000 915.000000"
 preserveAspectRatio="xMidYMid meet">

<g transform="translate(0.000000,915.000000) scale(0.100000,-0.100000)"
fill="#000000" stroke="none">
<path d="M4967 7690 c-109 -19 -221 -118 -252 -223 -13 -47 -15 -207 -13
-1358 l3 -1304 29 -58 c34 -66 86 -118 151 -149 l45 -22 -53 -28 c-70 -39
-109 -78 -143 -146 l-29 -57 -3 -1304 c-3 -1464 -7 -1367 71 -1463 30 -37 63
-63 112 -88 l68 -35 1311 0 1311 0 60 28 c68 32 147 110 167 163 6 19 15 34
18 34 3 0 12 -15 18 -34 20 -53 99 -131 167 -163 l60 -28 1311 0 1311 0 68 35
c49 25 82 51 112 88 78 96 74 -1 71 1463 l-3 1304 -29 58 c-34 66 -86 118
-151 149 l-45 22 53 28 c70 39 109 78 143 146 l29 57 3 1304 c3 1464 7 1367
-71 1463 -30 37 -63 63 -112 88 l-68 35 -1311 0 -1311 0 -60 -28 c-68 -32
-147 -110 -167 -163 -6 -19 -15 -34 -18 -34 -3 0 -12 15 -18 34 -20 53 -99
131 -167 163 l-60 28 -1280 1 c-704 1 -1302 -2 -1328 -6z m2578 -31 c114 -21
181 -70 228 -168 l22 -46 0 -1315 0 -1315 -23 -50 c-42 -91 -113 -145 -217
-165 -44 -8 -407 -10 -1325 -8 -1235 3 -1266 4 -1315 23 -61 25 -129 90 -158
153 l-22 47 0 1315 0 1315 21 45 c42 87 129 154 223 170 75 13 2497 12 2566
-1z m3178 -9 c73 -27 130 -79 164 -148 l28 -57 0 -1315 0 -1315 -21 -46 c-30
-63 -79 -116 -138 -147 l-51 -27 -1314 -3 c-1477 -3 -1369 -8 -1459 73 -30 27
-59 66 -73 97 l-24 53 0 1315 0 1315 21 46 c39 83 107 143 194 170 14 4 609 8
1322 8 1276 1 1298 1 1351 -19z m-2884 -2897 c19 -50 116 -147 165 -163 l39
-13 -51 -24 c-58 -27 -135 -107 -154 -159 -6 -19 -15 -34 -18 -34 -3 0 -12 15
-18 34 -19 52 -96 132 -154 159 l-51 24 39 13 c49 16 146 113 165 163 7 20 16
37 19 37 3 0 12 -17 19 -37z m-226 -209 c64 -22 139 -91 168 -156 l24 -53 0
-1315 0 -1315 -21 -46 c-30 -63 -79 -116 -138 -147 l-51 -27 -1312 -3 c-1295
-2 -1312 -2 -1366 18 -73 27 -130 79 -164 148 l-28 57 0 1315 0 1315 21 46
c39 83 107 143 194 170 14 4 610 8 1326 8 1165 1 1305 -1 1347 -15z m3135 -25
c64 -31 104 -73 138 -144 18 -39 19 -79 22 -1319 1 -833 -1 -1299 -8 -1334
-18 -100 -93 -187 -191 -220 -27 -9 -341 -12 -1341 -12 l-1306 0 -63 33 c-40
20 -75 48 -96 75 -66 87 -63 13 -63 1419 0 937 3 1287 12 1321 21 86 79 155
163 193 38 18 104 19 1356 19 l1316 0 61 -31z"/>
<path d="M5160 7391 c-44 -9 -90 -33 -113 -59 -47 -52 -46 -30 -46 -1207 -1
-1056 0 -1112 18 -1150 20 -46 69 -91 109 -103 15 -4 531 -7 1147 -7 1102 0
1121 0 1154 20 19 11 48 37 65 58 l31 39 0 1148 0 1148 -31 39 c-16 21 -48 47
-70 58 -38 20 -60 20 -1134 21 -602 1 -1111 -1 -1130 -5z m2259 -49 c19 -9 44
-30 55 -45 21 -28 21 -31 21 -1166 0 -1079 -1 -1138 -18 -1164 -10 -16 -32
-37 -50 -47 -31 -19 -60 -20 -1162 -20 -1103 0 -1131 1 -1162 20 -18 10 -40
34 -50 52 -17 31 -18 94 -18 1158 0 1113 0 1125 20 1160 44 75 -41 70 1210 70
1047 0 1122 -1 1154 -18z"/>
<path d="M5455 7079 c-132 -8 -170 -15 -232 -47 -74 -38 -106 -109 -79 -174
11 -26 37 -51 92 -89 93 -64 108 -92 131 -236 22 -136 26 -749 5 -877 -16
-105 -26 -121 -104 -184 -55 -44 -68 -60 -73 -91 -15 -87 50 -159 175 -197 90
-26 353 -27 449 0 129 35 198 118 172 206 -9 30 -25 49 -75 86 -84 61 -97 90
-105 241 -6 111 6 264 23 305 18 41 84 29 154 -29 26 -21 220 -193 432 -383
442 -396 477 -426 514 -440 73 -27 146 3 180 74 41 88 47 166 50 751 3 482 5
570 20 630 20 85 33 113 58 120 10 4 40 24 67 46 107 84 90 204 -36 261 -101
45 -503 44 -599 -2 -50 -25 -91 -72 -95 -110 -6 -68 11 -100 83 -152 37 -27
76 -64 84 -80 22 -42 34 -226 21 -306 -12 -75 -29 -90 -80 -69 -44 19 -95 61
-467 387 -173 151 -341 292 -372 312 -49 32 -70 39 -145 48 -48 5 -97 9 -108
8 -11 -1 -74 -5 -140 -9z m375 -69 c30 -19 78 -55 106 -80 28 -25 64 -56 80
-70 71 -61 520 -455 524 -461 3 -3 33 -26 68 -52 94 -69 144 -71 176 -9 35 68
28 303 -12 382 -10 19 -48 57 -85 84 -58 44 -67 55 -72 90 -18 121 61 156 350
156 302 -1 397 -39 380 -155 -7 -48 -25 -69 -93 -107 -110 -62 -114 -91 -118
-768 -4 -569 -11 -684 -49 -764 -49 -102 -142 -84 -290 58 -16 16 -61 56 -100
89 -38 33 -72 63 -75 67 -4 5 -143 130 -260 234 -20 17 -78 69 -130 116 -236
212 -279 245 -332 255 -77 14 -101 -24 -119 -188 -15 -136 -2 -282 30 -345 10
-20 47 -59 80 -85 71 -54 84 -80 70 -131 -14 -50 -66 -89 -151 -111 -102 -28
-335 -28 -428 -1 -126 37 -179 102 -146 181 8 19 19 35 24 35 6 0 33 20 60 45
79 71 88 111 101 408 11 275 5 486 -20 642 -28 177 -43 202 -160 279 -65 43
-85 84 -64 132 20 46 55 71 130 93 62 18 94 20 270 18 l201 -2 54 -35z"/>
<path d="M8260 7381 c-50 -10 -75 -26 -107 -68 l-28 -36 -3 -1126 c-2 -771 0
-1138 8 -1163 13 -44 66 -93 117 -107 26 -8 395 -11 1133 -10 1159 0 1141 -1
1192 46 11 10 29 35 39 55 18 36 19 78 19 1159 l0 1122 -25 43 c-14 23 -42 53
-62 66 l-38 23 -1105 1 c-608 1 -1121 -1 -1140 -5z m2270 -39 c19 -9 43 -33
55 -52 20 -35 20 -47 20 -1160 0 -1064 -1 -1127 -18 -1158 -10 -18 -32 -42
-50 -52 -31 -19 -59 -20 -1162 -20 -1102 0 -1131 1 -1162 20 -18 10 -40 31
-50 47 -17 26 -18 85 -18 1164 0 1135 0 1138 21 1166 11 15 36 36 55 45 32 17
107 18 1154 18 1046 0 1122 -1 1155 -18z"/>
<path d="M9236 7069 c-113 -10 -283 -45 -338 -69 -83 -36 -118 -97 -96 -163 6
-15 43 -54 83 -87 78 -64 88 -81 105 -182 27 -171 19 -908 -11 -1023 -8 -28
-30 -57 -79 -105 -101 -96 -105 -144 -17 -210 80 -61 161 -75 417 -74 307 1
468 32 540 104 42 42 50 68 37 120 -11 44 -27 61 -94 106 -29 19 -59 47 -67
62 -27 53 -38 274 -34 678 6 477 6 477 134 560 74 47 89 111 43 175 -42 60
-129 90 -308 108 -114 12 -182 12 -315 0z m377 -30 c193 -29 264 -81 242 -179
-4 -19 -19 -37 -43 -51 -63 -37 -111 -90 -127 -138 -35 -107 -45 -464 -24
-866 13 -257 17 -271 113 -339 37 -26 71 -59 77 -73 24 -65 0 -117 -74 -152
-122 -58 -577 -86 -753 -45 -108 25 -169 63 -174 109 -5 47 3 62 69 125 80 76
86 91 101 260 16 182 13 768 -5 868 -19 112 -36 142 -115 207 -74 60 -80 70
-80 119 0 68 86 110 293 145 129 22 387 27 500 10z"/>
<path d="M5127 4265 c-48 -16 -74 -40 -98 -87 -18 -36 -19 -78 -19 -1159 l0
-1122 25 -43 c14 -23 42 -53 62 -66 l38 -23 1130 0 c1264 0 1163 -6 1222 72
l28 36 3 1126 c2 771 0 1138 -8 1163 -13 44 -66 93 -117 107 -26 8 -395 11
-1133 10 -894 0 -1102 -3 -1133 -14z m2300 -35 c18 -10 40 -31 50 -47 17 -26
18 -85 18 -1164 0 -1135 0 -1138 -21 -1166 -11 -15 -36 -36 -55 -45 -32 -17
-107 -18 -1154 -18 -1251 0 -1166 -5 -1210 70 -20 35 -20 47 -20 1160 0 1064
1 1127 18 1158 10 18 32 42 50 52 31 19 59 20 1162 20 1102 0 1131 -1 1162
-20z"/>
<path d="M5430 3969 c-114 -8 -155 -17 -214 -52 -71 -40 -94 -94 -73 -164 8
-27 29 -47 92 -91 94 -65 106 -86 131 -227 21 -125 30 -587 15 -775 -17 -206
-23 -223 -109 -293 -59 -48 -71 -63 -77 -95 -10 -59 16 -111 73 -149 79 -53
146 -67 322 -67 180 -1 269 18 335 68 49 38 52 42 66 89 16 61 -1 97 -76 154
-84 63 -97 92 -104 241 -6 110 6 265 24 305 16 39 75 30 143 -21 20 -15 218
-190 441 -390 487 -436 493 -441 557 -448 92 -11 144 49 170 198 12 65 15 206
18 638 3 487 5 564 21 630 20 90 23 94 97 142 70 46 90 75 95 136 9 100 -66
153 -242 172 -147 15 -371 5 -442 -22 -68 -25 -113 -75 -113 -127 0 -66 17
-95 86 -145 35 -27 72 -62 80 -78 22 -42 34 -226 21 -306 -13 -80 -30 -92 -90
-63 -24 11 -202 161 -397 332 -195 171 -384 331 -420 355 -92 62 -171 72 -430
53z m416 -71 c38 -25 220 -178 405 -339 425 -372 432 -378 486 -364 45 11 58
57 58 210 0 180 -13 212 -110 282 -52 38 -68 56 -76 86 -19 73 7 119 86 153
31 13 83 18 231 22 279 7 388 -18 421 -95 29 -71 -10 -143 -106 -193 -88 -45
-92 -73 -101 -780 -5 -395 -12 -613 -20 -649 -27 -125 -79 -173 -163 -150 -51
13 -55 17 -527 439 -445 398 -479 427 -524 435 -74 14 -98 -15 -115 -139 -21
-152 -8 -316 31 -386 10 -19 44 -53 75 -75 70 -50 87 -85 70 -144 -16 -53 -59
-84 -152 -111 -101 -30 -340 -30 -439 -1 -98 29 -136 57 -153 114 -17 56 -1
87 68 141 78 61 98 104 111 245 5 58 10 237 10 396 1 374 -22 548 -81 619 -9
10 -48 41 -88 68 -55 38 -73 57 -79 81 -16 69 6 109 80 143 78 35 142 43 347
41 l187 -3 68 -46z"/>
<path d="M8253 4280 c-44 -10 -76 -33 -110 -77 l-28 -36 0 -1148 0 -1147 31
-39 c16 -21 48 -47 70 -58 38 -20 59 -20 1159 -20 1116 0 1120 0 1160 21 22
11 54 40 70 63 l30 43 3 1116 c2 774 0 1128 -8 1154 -13 45 -52 93 -94 116
-29 16 -113 17 -1141 19 -610 0 -1125 -2 -1142 -7z m2284 -50 c18 -10 40 -34
50 -52 17 -31 18 -94 18 -1158 0 -1113 0 -1125 -20 -1160 -44 -75 41 -70
-1210 -70 -1047 0 -1122 1 -1154 18 -19 9 -44 30 -55 45 -21 28 -21 31 -21
1166 0 1079 1 1138 18 1164 10 16 32 37 50 47 31 19 60 20 1162 20 1103 0
1131 -1 1162 -20z"/>
<path d="M9215 3959 c-187 -20 -330 -61 -381 -110 -67 -65 -54 -122 46 -204
82 -65 90 -78 106 -170 31 -167 25 -919 -7 -1039 -10 -38 -20 -49 -107 -129
-48 -44 -64 -95 -41 -136 24 -43 101 -87 184 -106 132 -29 439 -26 618 6 136
24 205 59 235 120 33 68 17 108 -73 176 -38 29 -74 63 -81 75 -25 49 -36 278
-32 673 6 477 5 473 114 548 101 69 116 137 47 209 -74 77 -353 116 -628 87z
m353 -34 c180 -11 282 -64 282 -146 0 -36 -4 -43 -47 -72 -117 -81 -135 -120
-154 -327 -13 -146 -7 -664 10 -820 14 -126 29 -157 107 -208 65 -43 84 -70
84 -120 0 -66 -65 -102 -240 -132 -164 -28 -466 -31 -580 -5 -129 29 -190 78
-174 141 3 13 35 49 70 80 102 90 103 93 111 635 4 319 2 391 -12 479 -9 58
-23 119 -32 138 -9 19 -47 59 -84 90 -84 71 -103 119 -62 164 32 36 109 61
288 94 57 10 242 21 295 18 25 -2 87 -6 138 -9z"/>
</g>
</svg>
