<?xml version="1.0" standalone="no"?>
<!DOCTYPE svg PUBLIC "-//W3C//DTD SVG 20010904//EN"
 "http://www.w3.org/TR/2001/REC-SVG-20010904/DTD/svg10.dtd">
<svg version="1.0" xmlns="http://www.w3.org/2000/svg"
 width="662.000000pt" height="653.000000pt" viewBox="0 0 662.000000 653.000000"
 preserveAspectRatio="xMidYMid meet">

<g transform="translate(0.000000,653.000000) scale(0.100000,-0.100000)"
fill="#000000" stroke="none">
<path d="M462 6341 c-80 -28 -141 -85 -181 -171 l-26 -55 0 -1315 0 -1315 33
-68 c37 -75 102 -136 169 -158 l38 -12 -45 -19 c-73 -31 -126 -82 -162 -156
l-33 -67 0 -1315 0 -1315 27 -58 c32 -68 95 -132 158 -161 45 -21 48 -21 1375
-21 l1330 0 57 28 c65 32 118 89 145 153 10 24 20 44 23 44 3 0 13 -20 23 -44
27 -64 80 -121 145 -153 l57 -28 1330 0 c1327 0 1330 0 1375 21 63 29 126 93
158 161 l27 58 0 1315 0 1315 -33 68 c-37 75 -102 136 -169 158 l-38 12 45 19
c73 31 126 82 162 156 l33 67 0 1315 0 1315 -27 58 c-32 68 -95 132 -158 161
-45 21 -48 21 -1375 21 l-1330 0 -57 -28 c-65 -32 -118 -89 -145 -153 -10 -24
-20 -44 -23 -44 -3 0 -13 20 -23 44 -27 64 -80 121 -145 153 l-57 28 -1315 2
c-1250 2 -1318 2 -1368 -16z m5830 -24 c70 -35 131 -101 158 -174 20 -54 20
-66 18 -1361 l-3 -1307 -27 -51 c-32 -60 -93 -118 -157 -148 l-46 -21 -1310 0
-1310 0 -53 24 c-67 30 -145 114 -166 179 -15 43 -16 180 -14 1358 l3 1309 27
51 c45 86 128 149 217 164 25 4 622 7 1326 6 l1280 -1 57 -28z m-3103 -5 c67
-36 106 -77 137 -145 l29 -62 0 -1310 0 -1310 -28 -57 c-16 -32 -48 -75 -72
-96 -88 -77 8 -73 -1460 -70 l-1310 3 -45 24 c-60 32 -101 75 -136 141 l-29
55 0 1315 0 1315 28 54 c32 59 55 86 105 121 75 51 26 49 1427 47 l1310 -2 44
-23z m200 -2884 c17 -55 101 -139 164 -163 l48 -18 -60 -29 c-69 -33 -135
-102 -153 -159 -6 -22 -14 -39 -18 -39 -4 0 -12 17 -18 39 -18 57 -84 126
-153 159 l-60 29 48 18 c63 24 147 108 164 163 7 23 15 42 19 42 4 0 12 -19
19 -42z m-211 -217 c67 -30 145 -114 166 -179 15 -43 16 -180 14 -1358 l-3
-1309 -27 -51 c-32 -60 -93 -118 -157 -148 l-46 -21 -1310 0 -1310 0 -57 28
c-70 35 -131 101 -158 174 -20 54 -20 66 -18 1361 l3 1307 27 51 c42 80 121
143 205 163 22 5 592 8 1328 8 l1290 -2 53 -24z m3099 -3 c75 -27 144 -98 170
-170 17 -50 18 -117 18 -1348 0 -1222 -1 -1298 -18 -1347 -25 -70 -99 -145
-172 -172 -56 -21 -59 -21 -1363 -19 l-1307 3 -58 29 c-67 32 -129 103 -149
169 -10 33 -13 320 -13 1347 l0 1305 23 50 c13 27 33 60 45 73 30 32 95 77
132 90 21 7 435 11 1332 11 l1302 1 58 -22z"/>
<path d="M3756 6027 c-22 -12 -49 -38 -60 -57 -21 -35 -21 -45 -24 -1148 -1
-747 1 -1126 8 -1152 14 -50 69 -107 112 -115 18 -3 539 -4 1158 -3 l1125 3
33 23 c72 52 67 -42 67 1222 0 1094 -1 1136 -19 1166 -10 17 -37 43 -59 58
l-41 26 -1131 0 -1130 0 -39 -23z m2323 -12 c19 -11 43 -33 55 -48 l21 -28 0
-1139 c0 -1134 0 -1139 -21 -1166 -11 -15 -33 -37 -48 -48 -27 -21 -32 -21
-1161 -21 l-1134 0 -28 21 c-15 11 -38 36 -50 54 l-23 33 0 1126 c0 1098 1
1127 20 1158 22 37 58 63 103 73 17 5 527 7 1132 7 1081 -2 1101 -2 1134 -22z"/>
<path d="M4667 5720 c-224 -38 -317 -85 -317 -163 0 -54 17 -82 81 -132 83
-65 96 -88 114 -196 29 -178 17 -920 -16 -1026 -6 -20 -35 -54 -74 -88 -74
-65 -90 -99 -72 -153 18 -55 83 -94 193 -117 198 -39 627 -11 761 50 126 57
126 171 0 255 -90 61 -94 75 -107 329 -19 380 -9 752 21 851 13 41 69 103 120
132 94 53 75 173 -34 223 -120 55 -448 72 -670 35z m514 -9 c133 -22 192 -52
221 -111 26 -55 14 -85 -51 -129 -73 -50 -94 -75 -116 -136 -16 -44 -19 -97
-23 -435 -4 -401 7 -640 34 -692 7 -14 42 -46 76 -70 80 -55 106 -101 85 -150
-29 -67 -92 -98 -252 -124 -154 -25 -491 -26 -589 -1 -184 46 -223 137 -101
236 30 25 62 60 71 79 26 56 37 219 38 607 1 514 -7 553 -130 655 -72 59 -80
72 -75 125 2 23 36 62 72 80 53 28 231 64 394 79 60 6 282 -3 346 -13z"/>
<path d="M715 6054 c-11 -3 -30 -7 -42 -9 -33 -7 -82 -53 -98 -92 -13 -30 -15
-194 -15 -1157 1 -1255 -5 -1157 73 -1220 l39 -31 1137 0 c1118 0 1138 0 1175
20 21 11 48 38 62 61 l24 41 0 1135 0 1135 -30 41 c-60 84 43 77 -1200 78
-608 1 -1114 0 -1125 -2z m2255 -40 c19 -11 45 -35 57 -54 l23 -33 0 -1127 0
-1127 -22 -33 c-13 -18 -36 -43 -51 -54 l-28 -21 -1134 0 c-1129 0 -1134 0
-1161 21 -15 11 -37 33 -48 48 -21 27 -21 34 -24 1154 -2 1058 -1 1129 15
1161 22 41 58 70 104 81 19 5 529 7 1134 7 1090 -2 1100 -2 1135 -23z"/>
<path d="M955 5744 c-174 -17 -267 -75 -267 -168 0 -52 21 -80 102 -138 87
-62 108 -96 127 -208 36 -208 34 -840 -3 -965 -14 -52 -42 -84 -115 -138 -74
-55 -69 -163 11 -220 83 -59 245 -84 435 -67 161 14 261 58 284 125 28 78 11
124 -65 180 -68 50 -89 83 -103 166 -21 122 -6 337 26 386 14 21 22 24 51 19
19 -3 52 -17 72 -31 21 -14 220 -189 442 -388 511 -457 496 -445 556 -458 43
-10 54 -9 88 7 45 22 79 81 95 164 6 32 14 303 19 650 8 593 11 639 45 722 3
9 32 32 63 51 69 43 86 61 102 110 15 46 6 89 -27 128 -54 63 -169 84 -416 76
-200 -6 -256 -18 -302 -61 -71 -67 -54 -163 41 -231 31 -22 64 -52 74 -66 28
-38 44 -149 37 -256 -7 -115 -23 -148 -69 -139 -43 9 -59 21 -454 366 -199
173 -387 330 -418 349 l-57 34 -167 2 c-92 2 -185 1 -207 -1z m412 -48 c27
-15 62 -39 79 -52 16 -14 51 -44 78 -67 27 -23 61 -53 76 -67 15 -14 51 -45
80 -70 29 -25 65 -56 80 -70 15 -14 51 -45 80 -70 29 -25 65 -56 80 -70 15
-14 56 -50 90 -80 35 -30 75 -66 89 -78 14 -13 53 -42 86 -63 71 -47 107 -49
139 -6 19 26 21 42 21 175 0 187 -12 217 -109 288 -51 38 -68 57 -76 86 -20
71 4 113 83 148 41 18 75 22 231 27 271 9 385 -18 421 -96 32 -71 -6 -140
-107 -192 -84 -43 -88 -72 -98 -779 -8 -624 -12 -671 -55 -746 -57 -97 -145
-78 -291 61 -11 11 -49 45 -84 75 -34 30 -75 66 -90 80 -15 14 -60 54 -100 90
-40 36 -85 76 -100 90 -33 30 -165 148 -190 170 -60 53 -167 148 -184 165 -43
43 -119 87 -156 92 -32 5 -43 1 -63 -20 -13 -15 -24 -32 -24 -39 -1 -7 -6 -44
-12 -83 -14 -90 -14 -197 0 -288 15 -97 28 -117 121 -187 79 -60 81 -139 4
-196 -65 -48 -162 -67 -335 -67 -127 1 -155 4 -217 25 -87 30 -128 61 -140
108 -15 56 0 95 50 129 108 75 123 119 135 416 17 397 -4 705 -55 815 -22 47
-36 62 -103 106 -89 59 -109 96 -85 153 18 42 35 58 88 82 64 28 167 38 352
35 153 -3 163 -4 211 -30z"/>
<path d="M650 2921 c-51 -27 -77 -71 -85 -144 -3 -34 -5 -548 -3 -1142 3
-1049 4 -1082 22 -1110 26 -40 36 -50 73 -69 29 -14 137 -16 1160 -16 l1128 0
39 23 c22 12 49 38 60 57 21 35 21 45 24 1148 1 722 -1 1127 -8 1151 -12 45
-55 96 -94 110 -18 8 -388 11 -1154 11 -1078 0 -1129 -1 -1162 -19z m2327 -17
c15 -11 38 -36 51 -54 l22 -33 0 -1127 0 -1127 -23 -33 c-12 -19 -38 -43 -57
-54 -35 -21 -43 -21 -1155 -21 -1102 0 -1121 0 -1154 20 -19 11 -43 33 -55 48
l-21 28 -3 1112 c-1 612 0 1127 3 1145 8 42 58 99 99 111 18 6 491 9 1148 8
1116 -2 1117 -2 1145 -23z"/>
<path d="M883 2626 c-123 -24 -193 -79 -193 -154 0 -61 18 -88 100 -143 65
-44 83 -61 98 -99 47 -110 67 -431 51 -800 -13 -298 -20 -323 -125 -400 -60
-45 -81 -95 -63 -151 35 -104 158 -151 396 -151 234 1 358 47 388 145 21 69 2
111 -73 166 -66 47 -87 82 -102 165 -20 115 -5 335 26 384 20 30 60 28 115 -6
24 -16 222 -188 439 -383 503 -450 500 -448 555 -465 101 -30 160 17 192 152
13 57 17 171 23 664 6 472 11 606 23 651 20 75 32 96 70 115 63 33 103 72 116
114 26 87 -18 157 -118 188 -74 23 -468 25 -544 3 -144 -42 -168 -187 -46
-270 74 -50 95 -80 109 -157 17 -88 8 -255 -15 -290 -14 -21 -21 -24 -48 -18
-43 9 -59 22 -455 368 -188 165 -372 318 -409 340 l-66 40 -186 3 c-126 2
-209 -2 -258 -11z m381 -5 c50 -7 82 -18 121 -43 30 -18 206 -166 392 -328
398 -348 409 -358 459 -375 45 -15 82 -3 89 29 19 77 22 130 14 233 -10 137
-21 159 -110 223 -64 47 -79 70 -79 122 0 45 28 83 79 109 98 49 495 48 598
-2 74 -36 98 -92 73 -166 -8 -21 -32 -43 -80 -74 -74 -47 -80 -57 -106 -159
-14 -55 -17 -150 -20 -625 -3 -439 -6 -578 -18 -645 -32 -181 -122 -227 -247
-127 -29 23 -236 205 -459 405 -223 200 -425 376 -449 392 -24 17 -59 33 -78
36 -29 6 -39 2 -61 -19 -22 -22 -27 -40 -36 -119 -6 -52 -8 -147 -5 -213 8
-150 23 -184 113 -255 71 -56 83 -82 65 -139 -17 -51 -63 -87 -144 -113 -96
-30 -357 -32 -450 -4 -83 26 -139 68 -154 115 -19 64 -6 90 67 146 85 64 96
93 112 289 17 196 8 662 -15 796 -24 143 -39 168 -133 234 -56 40 -83 66 -91
87 -25 72 25 136 133 171 63 21 318 32 420 19z"/>
<path d="M3785 2937 c-48 -19 -61 -29 -89 -71 l-26 -39 0 -1137 0 -1137 23
-34 c32 -48 80 -77 140 -84 29 -3 540 -5 1137 -3 l1085 3 35 22 c41 26 67 55
81 89 5 16 9 464 9 1145 0 928 -2 1125 -14 1152 -17 41 -62 81 -105 96 -49 16
-2234 14 -2276 -2z m2301 -33 c15 -11 37 -33 48 -48 21 -27 21 -32 21 -1166
l0 -1139 -21 -28 c-12 -15 -36 -37 -55 -48 -33 -20 -52 -20 -1154 -20 -1112 0
-1120 0 -1155 21 -19 11 -45 35 -57 54 l-23 33 0 1124 c0 1215 -3 1149 53
1201 13 13 37 27 53 32 16 5 532 8 1146 7 1111 -2 1117 -2 1144 -23z"/>
<path d="M4825 2629 c-132 -9 -312 -43 -378 -71 -26 -11 -59 -34 -73 -51 -23
-27 -25 -38 -21 -81 4 -43 9 -53 48 -84 99 -80 126 -116 140 -183 30 -149 21
-973 -13 -1064 -6 -16 -40 -57 -75 -90 -37 -35 -67 -73 -72 -90 -21 -81 40
-141 181 -175 169 -40 586 -21 750 36 89 30 127 86 113 161 -7 39 -30 64 -114
126 -29 21 -49 45 -57 70 -21 60 -37 470 -30 742 9 353 19 393 122 460 66 43
84 68 84 116 0 65 -55 121 -145 146 -102 29 -297 43 -460 32z m335 -30 c193
-27 264 -76 246 -172 -5 -24 -18 -39 -53 -62 -63 -40 -109 -90 -118 -128 -4
-18 -9 -39 -11 -47 -24 -104 -31 -485 -14 -821 13 -245 23 -283 85 -323 24
-14 58 -40 76 -56 30 -26 34 -35 34 -79 0 -52 -17 -76 -75 -106 -116 -60 -572
-88 -757 -46 -136 31 -195 84 -170 155 6 17 13 33 17 36 48 34 114 100 124
125 23 54 36 283 36 629 0 313 -4 379 -33 511 -4 15 -41 75 -47 75 -3 0 -21
14 -40 31 -19 17 -45 37 -57 46 -28 19 -39 74 -23 113 40 96 472 162 780 119z"/>
</g>
</svg>
